<?xml version="1.0" encoding="UTF-8" standalone="no"?>
<!DOCTYPE svg PUBLIC "-//W3C//DTD SVG 1.1//EN" "http://www.w3.org/Graphics/SVG/1.1/DTD/svg11.dtd">
<!-- Created with Vectornator (http://vectornator.io/) -->
<svg height="100%" stroke-miterlimit="10" style="fill-rule:nonzero;clip-rule:evenodd;stroke-linecap:round;stroke-linejoin:round;" version="1.1" viewBox="0 0 498.573 163.259" width="100%" xml:space="preserve" xmlns="http://www.w3.org/2000/svg" xmlns:xlink="http://www.w3.org/1999/xlink">
<defs/>
<clipPath id="ArtboardFrame">
<rect height="163.259" width="498.573" x="0" y="0"/>
</clipPath>
<g clip-path="url(#ArtboardFrame)" id="Layer-2" visibility="hidden">
<path d="M-15.3245-59.6817L520.488-59.6817L520.488 217.623L-15.3245 217.623L-15.3245-59.6817Z" fill="#232323" fill-rule="nonzero" opacity="1" stroke="#060606" stroke-linecap="butt" stroke-linejoin="miter" stroke-width="3"/>
</g>
<g id="Layer-1">
<g opacity="1">
<path d="M122.21 15.2236C122.21 11.4027 125.307 8.30537 129.128 8.30537L438.888 8.30537C442.709 8.30537 445.806 11.4027 445.806 15.2236L445.806 67.7353C445.806 71.5561 442.709 74.6535 438.888 74.6535L129.128 74.6535C125.307 74.6535 122.21 71.5561 122.21 67.7353L122.21 15.2236Z" fill="#86ccf3" fill-opacity="0.603379" fill-rule="nonzero" opacity="1" stroke="none"/>
<path d="M122.21 94.2657C122.21 90.4449 125.307 87.3476 129.128 87.3476L438.888 87.3476C442.709 87.3476 445.806 90.4449 445.806 94.2657L445.806 146.777C445.806 150.598 442.709 153.696 438.888 153.696L129.128 153.696C125.307 153.696 122.21 150.598 122.21 146.777L122.21 94.2657Z" fill="#5aa5d5" fill-opacity="0.603379" fill-rule="nonzero" opacity="1" stroke="none"/>
<g opacity="1">
<path d="M20.0949 33.2498C20.0949 29.429 23.1923 26.3316 27.0131 26.3316L85.8607 26.3316C89.6815 26.3316 92.7789 29.429 92.7789 33.2498L92.7789 49.709C92.7789 53.5298 89.6815 56.6272 85.8607 56.6272L27.0131 56.6272C23.1923 56.6272 20.0949 53.5298 20.0949 49.709L20.0949 33.2498Z" fill="#aadb89" fill-rule="nonzero" opacity="1" stroke="none"/>
<g fill="#ffffff" opacity="1" stroke="none">
<path d="M37.3741 42.5099L35.2003 42.5099L35.2003 46.4611L33.1427 46.4611L33.1427 36.3849L38.0851 36.3849C38.7915 36.3986 39.3349 36.4852 39.7154 36.6447C40.096 36.8042 40.4184 37.0389 40.6827 37.3488C40.9015 37.604 41.0747 37.8865 41.2023 38.1964C41.3299 38.5063 41.3937 38.8595 41.3937 39.256C41.3937 39.7345 41.2729 40.205 41.0314 40.6676C40.7898 41.1302 40.3911 41.4572 39.8351 41.6486C40.2999 41.8354 40.6292 42.1009 40.8229 42.4449C41.0166 42.789 41.1134 43.3143 41.1134 44.0206L41.1134 44.6974C41.1134 45.1577 41.1316 45.4699 41.1681 45.6339C41.2228 45.8937 41.3504 46.0851 41.5509 46.2081L41.5509 46.4611L39.2335 46.4611C39.1697 46.2378 39.1241 46.0577 39.0968 45.921C39.0421 45.6385 39.0125 45.3491 39.0079 45.0529L38.9943 44.1163C38.9851 43.4738 38.8678 43.0454 38.6422 42.8312C38.4166 42.617 37.9939 42.5099 37.3741 42.5099ZM38.6525 40.6779C39.0717 40.4865 39.2814 40.1082 39.2814 39.5431C39.2814 38.9324 39.0786 38.5223 38.673 38.3126C38.4451 38.1941 38.1033 38.1349 37.6476 38.1349L35.2003 38.1349L35.2003 40.8419L37.586 40.8419C38.06 40.8419 38.4155 40.7872 38.6525 40.6779Z"/>
<path d="M49.4259 44.2736C49.3758 44.7156 49.1456 45.1645 48.7355 45.6202C48.0974 46.3449 47.2042 46.7072 46.0558 46.7072C45.1079 46.7072 44.2716 46.4018 43.547 45.7911C42.8224 45.1805 42.4601 44.187 42.4601 42.8107C42.4601 41.521 42.7871 40.532 43.441 39.8439C44.095 39.1557 44.9438 38.8116 45.9874 38.8116C46.6072 38.8116 47.1655 38.9279 47.6622 39.1603C48.159 39.3927 48.5691 39.7596 48.8927 40.2609C49.1844 40.7029 49.3735 41.2156 49.4601 41.799C49.5102 42.1408 49.5307 42.6329 49.5216 43.2755L44.422 43.2755C44.4493 44.0229 44.684 44.547 45.1261 44.8478C45.395 45.0346 45.7185 45.1281 46.0968 45.1281C46.4978 45.1281 46.8237 45.0141 47.0743 44.7863C47.211 44.6632 47.3318 44.4923 47.4366 44.2736L49.4259 44.2736ZM47.4982 41.9904C47.4663 41.4754 47.3102 41.0846 47.0299 40.818C46.7496 40.5514 46.4021 40.4181 45.9874 40.4181C45.5362 40.4181 45.1865 40.5594 44.9381 40.8419C44.6897 41.1245 44.5336 41.5073 44.4698 41.9904L47.4982 41.9904Z"/>
<path d="M57.2804 41.6827L55.2843 41.6827C55.2478 41.4047 55.1544 41.1541 55.004 40.9308C54.7853 40.63 54.4457 40.4796 53.9855 40.4796C53.3292 40.4796 52.8803 40.8055 52.6388 41.4572C52.5112 41.8035 52.4474 42.2638 52.4474 42.838C52.4474 43.3849 52.5112 43.8247 52.6388 44.1574C52.8712 44.7771 53.3087 45.087 53.9513 45.087C54.407 45.087 54.7306 44.964 54.922 44.7179C55.1134 44.4718 55.2296 44.1528 55.2706 43.7609L57.2599 43.7609C57.2143 44.3533 57.0001 44.9139 56.6173 45.4425C56.0066 46.2947 55.102 46.7208 53.9034 46.7208C52.7049 46.7208 51.823 46.3654 51.2579 45.6544C50.6928 44.9435 50.4103 44.0206 50.4103 42.8859C50.4103 41.6053 50.7224 40.6095 51.3468 39.8986C51.9711 39.1876 52.8325 38.8322 53.9308 38.8322C54.865 38.8322 55.6295 39.0418 56.2242 39.4611C56.819 39.8803 57.171 40.6209 57.2804 41.6827Z"/>
<path d="M64.8341 39.9533C65.463 40.7417 65.7775 41.6736 65.7775 42.7491C65.7775 43.8429 65.463 44.7783 64.8341 45.5553C64.2052 46.3323 63.2504 46.7208 61.9698 46.7208C60.6892 46.7208 59.7345 46.3323 59.1056 45.5553C58.4767 44.7783 58.1622 43.8429 58.1622 42.7491C58.1622 41.6736 58.4767 40.7417 59.1056 39.9533C59.7345 39.1648 60.6892 38.7706 61.9698 38.7706C63.2504 38.7706 64.2052 39.1648 64.8341 39.9533ZM61.963 40.4181C61.3933 40.4181 60.9547 40.6198 60.6471 41.0231C60.3395 41.4264 60.1857 42.0018 60.1857 42.7491C60.1857 43.4965 60.3395 44.073 60.6471 44.4786C60.9547 44.8842 61.3933 45.087 61.963 45.087C62.5327 45.087 62.9702 44.8842 63.2755 44.4786C63.5808 44.073 63.7335 43.4965 63.7335 42.7491C63.7335 42.0018 63.5808 41.4264 63.2755 41.0231C62.9702 40.6198 62.5327 40.4181 61.963 40.4181Z"/>
<path d="M70.9181 40.8077C70.1342 40.8077 69.6079 41.063 69.339 41.5734C69.1886 41.8605 69.1134 42.3025 69.1134 42.8995L69.1134 46.4611L67.1515 46.4611L67.1515 39.0099L69.0109 39.0099L69.0109 40.3087C69.3116 39.812 69.5737 39.4725 69.797 39.2902C70.1616 38.9848 70.6355 38.8322 71.2189 38.8322C71.2553 38.8322 71.2861 38.8333 71.3111 38.8356C71.3362 38.8379 71.392 38.8413 71.4786 38.8458L71.4786 40.8419C71.3556 40.8283 71.2462 40.8191 71.1505 40.8146C71.0548 40.81 70.9773 40.8077 70.9181 40.8077Z"/>
<path d="M79.4015 36.3986L79.4015 46.4611L77.5079 46.4611L77.5079 45.4288C77.2299 45.8709 76.9132 46.1922 76.5577 46.3927C76.2023 46.5932 75.7602 46.6935 75.2316 46.6935C74.3611 46.6935 73.6285 46.3414 73.0338 45.6373C72.4391 44.9332 72.1417 44.0297 72.1417 42.9269C72.1417 41.6554 72.4345 40.6551 73.0201 39.9259C73.6057 39.1967 74.3885 38.8322 75.3683 38.8322C75.8194 38.8322 76.2205 38.9313 76.5714 39.1295C76.9223 39.3278 77.2071 39.6023 77.4259 39.9533L77.4259 36.3986L79.4015 36.3986ZM74.1515 42.7833C74.1515 43.4715 74.2882 44.0206 74.5616 44.4308C74.8305 44.8455 75.2407 45.0529 75.7921 45.0529C76.3435 45.0529 76.7628 44.8478 77.0499 44.4376C77.337 44.0275 77.4806 43.4965 77.4806 42.8449C77.4806 41.9334 77.2504 41.2817 76.7902 40.8898C76.5076 40.6528 76.1795 40.5343 75.8058 40.5343C75.2361 40.5343 74.818 40.7496 74.5514 41.1803C74.2848 41.611 74.1515 42.1453 74.1515 42.7833Z"/>
</g>
</g>
<g opacity="1">
<path d="M20.0949 112.292C20.0949 108.471 23.1923 105.374 27.0131 105.374L85.8607 105.374C89.6815 105.374 92.7789 108.471 92.7789 112.292L92.7789 128.751C92.7789 132.572 89.6815 135.669 85.8607 135.669L27.0131 135.669C23.1923 135.669 20.0949 132.572 20.0949 128.751L20.0949 112.292Z" fill="#86ccf3" fill-rule="nonzero" opacity="1" stroke="none"/>
<g fill="#ffffff" opacity="1" stroke="none">
<path d="M30.2211 115.427L32.3266 115.427L32.3266 123.692L37.3168 123.692L37.3168 125.503L30.2211 125.503L30.2211 115.427Z"/>
<path d="M44.8295 118.995C45.4584 119.784 45.7729 120.716 45.7729 121.791C45.7729 122.885 45.4584 123.82 44.8295 124.597C44.2006 125.375 43.2458 125.763 41.9652 125.763C40.6846 125.763 39.7299 125.375 39.101 124.597C38.4721 123.82 38.1576 122.885 38.1576 121.791C38.1576 120.716 38.4721 119.784 39.101 118.995C39.7299 118.207 40.6846 117.813 41.9652 117.813C43.2458 117.813 44.2006 118.207 44.8295 118.995ZM41.9584 119.46C41.3887 119.46 40.9501 119.662 40.6425 120.065C40.3349 120.469 40.1811 121.044 40.1811 121.791C40.1811 122.539 40.3349 123.115 40.6425 123.521C40.9501 123.926 41.3887 124.129 41.9584 124.129C42.5281 124.129 42.9656 123.926 43.2709 123.521C43.5762 123.115 43.7289 122.539 43.7289 121.791C43.7289 121.044 43.5762 120.469 43.2709 120.065C42.9656 119.662 42.5281 119.46 41.9584 119.46Z"/>
<path d="M49.2729 126.809C49.4825 126.987 49.8357 127.076 50.3324 127.076C51.0343 127.076 51.5037 126.841 51.7406 126.371C51.8956 126.071 51.9731 125.565 51.9731 124.854L51.9731 124.375C51.7862 124.694 51.5857 124.934 51.3715 125.093C50.9841 125.389 50.4805 125.537 49.8608 125.537C48.9037 125.537 48.1392 125.201 47.5673 124.529C46.9954 123.857 46.7094 122.947 46.7094 121.798C46.7094 120.691 46.9851 119.76 47.5365 119.006C48.088 118.251 48.8695 117.874 49.8813 117.874C50.255 117.874 50.5808 117.931 50.8588 118.045C51.3328 118.241 51.7156 118.601 52.0072 119.125L52.0072 118.052L53.9008 118.052L53.9008 125.12C53.9008 126.082 53.739 126.807 53.4154 127.294C52.8595 128.133 51.793 128.552 50.2162 128.552C49.2637 128.552 48.4867 128.365 47.8852 127.992C47.2836 127.618 46.9509 127.06 46.8871 126.317L49.0063 126.317C49.0609 126.545 49.1498 126.709 49.2729 126.809ZM48.9447 122.96C49.2091 123.589 49.683 123.904 50.3666 123.904C50.8223 123.904 51.2074 123.732 51.5219 123.388C51.8363 123.043 51.9936 122.495 51.9936 121.743C51.9936 121.037 51.8443 120.499 51.5458 120.13C51.2473 119.761 50.8474 119.576 50.3461 119.576C49.6625 119.576 49.1908 119.898 48.9311 120.54C48.7943 120.882 48.726 121.304 48.726 121.805C48.726 122.238 48.7989 122.623 48.9447 122.96Z"/>
<path d="M66.9096 117.211L61.8578 117.211L61.8578 119.529L66.2807 119.529L66.2807 121.279L61.8578 121.279L61.8578 125.503L59.766 125.503L59.766 115.441L66.9096 115.441L66.9096 117.211Z"/>
<path d="M70.1635 118.052L70.1635 125.503L68.1879 125.503L68.1879 118.052L70.1635 118.052ZM70.1635 115.366L70.1635 117.163L68.1879 117.163L68.1879 115.366L70.1635 115.366Z"/>
<path d="M72.0912 115.427L74.0395 115.427L74.0395 125.503L72.0912 125.503L72.0912 115.427Z"/>
<path d="M82.3178 123.316C82.2677 123.758 82.0375 124.207 81.6274 124.662C80.9893 125.387 80.0961 125.749 78.9477 125.749C77.9998 125.749 77.1635 125.444 76.4389 124.833C75.7143 124.223 75.352 123.229 75.352 121.853C75.352 120.563 75.679 119.574 76.3329 118.886C76.9869 118.198 77.8357 117.854 78.8793 117.854C79.4991 117.854 80.0574 117.97 80.5541 118.202C81.0509 118.435 81.461 118.802 81.7846 119.303C82.0762 119.745 82.2654 120.258 82.352 120.841C82.4021 121.183 82.4226 121.675 82.4135 122.318L77.3139 122.318C77.3412 123.065 77.5759 123.589 78.018 123.89C78.2869 124.077 78.6104 124.17 78.9887 124.17C79.3897 124.17 79.7156 124.056 79.9662 123.828C80.1029 123.705 80.2237 123.534 80.3285 123.316L82.3178 123.316ZM80.3901 121.033C80.3582 120.518 80.2021 120.127 79.9218 119.86C79.6415 119.594 79.294 119.46 78.8793 119.46C78.4281 119.46 78.0784 119.602 77.83 119.884C77.5816 120.167 77.4255 120.549 77.3617 121.033L80.3901 121.033Z"/>
</g>
</g>
<g opacity="1">
<path d="M130.826 43.9844C130.826 40.1636 133.923 37.0662 137.744 37.0662L216.547 37.0662C220.368 37.0662 223.465 40.1636 223.465 43.9844L223.465 60.4436C223.465 64.2644 220.368 67.3618 216.547 67.3618L137.744 67.3618C133.923 67.3618 130.826 64.2644 130.826 60.4436L130.826 43.9844Z" fill="#b494f9" fill-rule="nonzero" opacity="1" stroke="none"/>
<g fill="#ffffff" opacity="1" stroke="none">
<path d="M150.2 56.4437C149.448 57.1318 148.486 57.4759 147.315 57.4759C145.866 57.4759 144.726 57.0111 143.897 56.0814C143.068 55.1471 142.653 53.8665 142.653 52.2396C142.653 50.4805 143.125 49.1247 144.068 48.1722C144.888 47.3428 145.932 46.928 147.199 46.928C148.894 46.928 150.134 47.484 150.918 48.596C151.35 49.2204 151.583 49.847 151.615 50.4759L149.509 50.4759C149.373 49.9928 149.197 49.6282 148.983 49.3821C148.6 48.9446 148.033 48.7259 147.281 48.7259C146.515 48.7259 145.911 49.0347 145.469 49.6522C145.027 50.2697 144.806 51.1435 144.806 52.2738C144.806 53.404 145.04 54.2505 145.507 54.8133C145.974 55.3761 146.568 55.6575 147.288 55.6575C148.026 55.6575 148.589 55.416 148.976 54.9329C149.19 54.6732 149.368 54.2835 149.509 53.764L151.594 53.764C151.412 54.8623 150.947 55.7555 150.2 56.4437Z"/>
<path d="M159.257 50.6878C159.886 51.4762 160.201 52.4082 160.201 53.4837C160.201 54.5775 159.886 55.5128 159.257 56.2899C158.628 57.0669 157.674 57.4554 156.393 57.4554C155.113 57.4554 154.158 57.0669 153.529 56.2899C152.9 55.5128 152.586 54.5775 152.586 53.4837C152.586 52.4082 152.9 51.4762 153.529 50.6878C154.158 49.8994 155.113 49.5052 156.393 49.5052C157.674 49.5052 158.628 49.8994 159.257 50.6878ZM156.386 51.1527C155.817 51.1527 155.378 51.3543 155.07 51.7576C154.763 52.161 154.609 52.7363 154.609 53.4837C154.609 54.2311 154.763 54.8076 155.07 55.2132C155.378 55.6188 155.817 55.8216 156.386 55.8216C156.956 55.8216 157.393 55.6188 157.699 55.2132C158.004 54.8076 158.157 54.2311 158.157 53.4837C158.157 52.7363 158.004 52.161 157.699 51.7576C157.393 51.3543 156.956 51.1527 156.386 51.1527Z"/>
<path d="M165.779 51.7952C165.615 51.4352 165.294 51.2552 164.815 51.2552C164.259 51.2552 163.885 51.4352 163.694 51.7952C163.589 52.0003 163.537 52.3057 163.537 52.7113L163.537 57.1956L161.561 57.1956L161.561 49.7581L163.455 49.7581L163.455 50.845C163.696 50.4577 163.924 50.182 164.138 50.0179C164.517 49.7262 165.006 49.5804 165.608 49.5804C166.178 49.5804 166.638 49.7057 166.989 49.9564C167.271 50.1888 167.486 50.4873 167.631 50.8519C167.887 50.4144 168.203 50.0931 168.582 49.888C168.983 49.6829 169.429 49.5804 169.921 49.5804C170.25 49.5804 170.573 49.6442 170.892 49.7718C171.211 49.8994 171.501 50.1227 171.76 50.4417C171.97 50.7015 172.111 51.0205 172.184 51.3988C172.23 51.6494 172.253 52.0163 172.253 52.4993L172.239 57.1956L170.243 57.1956L170.243 52.4515C170.243 52.1689 170.197 51.9365 170.106 51.7542C169.933 51.4079 169.614 51.2347 169.149 51.2347C168.611 51.2347 168.24 51.458 168.035 51.9046C167.93 52.1416 167.878 52.4264 167.878 52.7591L167.878 57.1956L165.916 57.1956L165.916 52.7591C165.916 52.317 165.87 51.9958 165.779 51.7952Z"/>
<path d="M180.285 50.5443C180.886 51.1868 181.187 52.1302 181.187 53.3743C181.187 54.6868 180.892 55.6872 180.302 56.3753C179.712 57.0635 178.952 57.4075 178.022 57.4075C177.43 57.4075 176.937 57.2594 176.545 56.9632C176.331 56.7991 176.122 56.5599 175.917 56.2454L175.917 60.1282L173.989 60.1282L173.989 49.7445L175.855 49.7445L175.855 50.845C176.065 50.5215 176.288 50.2663 176.525 50.0794C176.958 49.7467 177.473 49.5804 178.07 49.5804C178.94 49.5804 179.679 49.9017 180.285 50.5443ZM179.177 53.47C179.177 52.8958 179.046 52.3877 178.784 51.9456C178.522 51.5036 178.097 51.2825 177.509 51.2825C176.803 51.2825 176.318 51.6175 176.053 52.2874C175.917 52.6429 175.848 53.0941 175.848 53.6409C175.848 54.5068 176.078 55.1152 176.539 55.4661C176.812 55.6712 177.136 55.7738 177.509 55.7738C178.052 55.7738 178.465 55.5641 178.75 55.1448C179.035 54.7256 179.177 54.1673 179.177 53.47Z"/>
<path d="M186.341 51.5423C185.558 51.5423 185.031 51.7975 184.762 52.3079C184.612 52.595 184.537 53.0371 184.537 53.6341L184.537 57.1956L182.575 57.1956L182.575 49.7445L184.434 49.7445L184.434 51.0433C184.735 50.5465 184.997 50.207 185.22 50.0247C185.585 49.7194 186.059 49.5667 186.642 49.5667C186.679 49.5667 186.709 49.5679 186.734 49.5701C186.76 49.5724 186.815 49.5758 186.902 49.5804L186.902 51.5765C186.779 51.5628 186.67 51.5537 186.574 51.5491C186.478 51.5446 186.401 51.5423 186.341 51.5423Z"/>
<path d="M194.421 55.0081C194.371 55.4502 194.141 55.8991 193.731 56.3548C193.093 57.0794 192.2 57.4417 191.051 57.4417C190.103 57.4417 189.267 57.1364 188.543 56.5257C187.818 55.915 187.456 54.9215 187.456 53.5452C187.456 52.2555 187.783 51.2666 188.437 50.5784C189.091 49.8903 189.939 49.5462 190.983 49.5462C191.603 49.5462 192.161 49.6624 192.658 49.8948C193.155 50.1273 193.565 50.4941 193.888 50.9954C194.18 51.4375 194.369 51.9502 194.456 52.5335C194.506 52.8753 194.526 53.3675 194.517 54.0101L189.418 54.0101C189.445 54.7575 189.68 55.2816 190.122 55.5823C190.391 55.7692 190.714 55.8626 191.092 55.8626C191.493 55.8626 191.819 55.7487 192.07 55.5208C192.207 55.3978 192.327 55.2269 192.432 55.0081L194.421 55.0081ZM192.494 52.7249C192.462 52.2099 192.306 51.8192 192.025 51.5526C191.745 51.286 191.398 51.1527 190.983 51.1527C190.532 51.1527 190.182 51.2939 189.934 51.5765C189.685 51.859 189.529 52.2419 189.465 52.7249L192.494 52.7249Z"/>
<path d="M200.963 50.0863C201.547 50.4599 201.882 51.1025 201.968 52.014L200.02 52.014C199.993 51.7633 199.922 51.5651 199.808 51.4193C199.594 51.1549 199.229 51.0228 198.714 51.0228C198.291 51.0228 197.989 51.0889 197.809 51.221C197.629 51.3532 197.539 51.5081 197.539 51.6859C197.539 51.9092 197.634 52.071 197.826 52.1712C198.017 52.276 198.694 52.456 199.856 52.7113C200.631 52.8935 201.212 53.1693 201.599 53.5384C201.982 53.9121 202.173 54.3792 202.173 54.9398C202.173 55.678 201.899 56.2808 201.35 56.7479C200.801 57.215 199.952 57.4486 198.803 57.4486C197.632 57.4486 196.767 57.2013 196.209 56.7069C195.651 56.2124 195.372 55.5823 195.372 54.8167L197.347 54.8167C197.388 55.1631 197.477 55.4092 197.614 55.555C197.855 55.8148 198.302 55.9446 198.954 55.9446C199.337 55.9446 199.641 55.8877 199.866 55.7738C200.092 55.6598 200.205 55.4889 200.205 55.2611C200.205 55.0423 200.114 54.876 199.931 54.762C199.749 54.6481 199.072 54.4521 197.901 54.1741C197.058 53.9645 196.463 53.7025 196.117 53.388C195.77 53.0781 195.597 52.6315 195.597 52.0482C195.597 51.36 195.867 50.7687 196.407 50.2742C196.947 49.7798 197.707 49.5325 198.687 49.5325C199.617 49.5325 200.376 49.7171 200.963 50.0863Z"/>
<path d="M208.75 50.0863C209.333 50.4599 209.668 51.1025 209.754 52.014L207.806 52.014C207.779 51.7633 207.708 51.5651 207.594 51.4193C207.38 51.1549 207.016 51.0228 206.501 51.0228C206.077 51.0228 205.775 51.0889 205.595 51.221C205.415 51.3532 205.325 51.5081 205.325 51.6859C205.325 51.9092 205.42 52.071 205.612 52.1712C205.803 52.276 206.48 52.456 207.642 52.7113C208.417 52.8935 208.998 53.1693 209.385 53.5384C209.768 53.9121 209.96 54.3792 209.96 54.9398C209.96 55.678 209.685 56.2808 209.136 56.7479C208.587 57.215 207.738 57.4486 206.589 57.4486C205.418 57.4486 204.553 57.2013 203.995 56.7069C203.437 56.2124 203.158 55.5823 203.158 54.8167L205.133 54.8167C205.174 55.1631 205.263 55.4092 205.4 55.555C205.642 55.8148 206.088 55.9446 206.74 55.9446C207.123 55.9446 207.427 55.8877 207.652 55.7738C207.878 55.6598 207.991 55.4889 207.991 55.2611C207.991 55.0423 207.9 54.876 207.717 54.762C207.535 54.6481 206.858 54.4521 205.687 54.1741C204.844 53.9645 204.249 53.7025 203.903 53.388C203.557 53.0781 203.383 52.6315 203.383 52.0482C203.383 51.36 203.653 50.7687 204.193 50.2742C204.733 49.7798 205.493 49.5325 206.473 49.5325C207.403 49.5325 208.162 49.7171 208.75 50.0863Z"/>
</g>
</g>
<g opacity="1">
<path d="M254.192 43.9844C254.192 40.1636 257.29 37.0662 261.11 37.0662L323.559 37.0662C327.38 37.0662 330.477 40.1636 330.477 43.9844L330.477 60.4436C330.477 64.2644 327.38 67.3618 323.559 67.3618L261.11 67.3618C257.29 67.3618 254.192 64.2644 254.192 60.4436L254.192 43.9844Z" fill="#f494ce" fill-rule="nonzero" opacity="1" stroke="none"/>
<g fill="#ffffff" opacity="1" stroke="none">
<path d="M273.947 52.7933L269.052 52.7933L269.052 55.3841L274.631 55.3841L274.631 57.1956L266.995 57.1956L266.995 47.1195L274.384 47.1195L274.384 48.9036L269.052 48.9036L269.052 51.0433L273.947 51.0433L273.947 52.7933Z"/>
<path d="M279.621 51.1868C278.96 51.1868 278.507 51.4671 278.26 52.0277C278.133 52.3239 278.069 52.7021 278.069 53.1624L278.069 57.1956L276.128 57.1956L276.128 49.7581L278.008 49.7581L278.008 50.845C278.258 50.4622 278.495 50.1865 278.718 50.0179C279.12 49.7171 279.628 49.5667 280.243 49.5667C281.013 49.5667 281.643 49.7684 282.133 50.1717C282.623 50.575 282.868 51.2438 282.868 52.178L282.868 57.1956L280.872 57.1956L280.872 52.6634C280.872 52.2715 280.819 51.9707 280.715 51.7611C280.523 51.3782 280.159 51.1868 279.621 51.1868Z"/>
<path d="M291.112 52.4173L289.116 52.4173C289.079 52.1393 288.986 51.8887 288.836 51.6654C288.617 51.3646 288.277 51.2142 287.817 51.2142C287.161 51.2142 286.712 51.54 286.47 52.1917C286.343 52.5381 286.279 52.9984 286.279 53.5726C286.279 54.1195 286.343 54.5592 286.47 54.8919C286.703 55.5117 287.14 55.8216 287.783 55.8216C288.239 55.8216 288.562 55.6986 288.754 55.4525C288.945 55.2064 289.061 54.8874 289.102 54.4954L291.092 54.4954C291.046 55.0879 290.832 55.6484 290.449 56.1771C289.838 57.0293 288.934 57.4554 287.735 57.4554C286.536 57.4554 285.655 57.0999 285.09 56.389C284.524 55.678 284.242 54.7552 284.242 53.6204C284.242 52.3398 284.554 51.3441 285.178 50.6331C285.803 49.9222 286.664 49.5667 287.762 49.5667C288.697 49.5667 289.461 49.7764 290.056 50.1956C290.651 50.6149 291.003 51.3555 291.112 52.4173Z"/>
<path d="M296.198 51.5423C295.414 51.5423 294.888 51.7975 294.619 52.3079C294.468 52.595 294.393 53.0371 294.393 53.6341L294.393 57.1956L292.431 57.1956L292.431 49.7445L294.291 49.7445L294.291 51.0433C294.592 50.5465 294.854 50.207 295.077 50.0247C295.441 49.7194 295.915 49.5667 296.499 49.5667C296.535 49.5667 296.566 49.5679 296.591 49.5701C296.616 49.5724 296.672 49.5758 296.759 49.5804L296.759 51.5765C296.635 51.5628 296.526 51.5537 296.43 51.5491C296.335 51.5446 296.257 51.5423 296.198 51.5423Z"/>
<path d="M300.928 55.2405L302.467 49.7445L304.538 49.7445L301.981 57.0726C301.489 58.4853 301.099 59.3615 300.812 59.701C300.525 60.0405 299.951 60.2103 299.09 60.2103C298.916 60.2103 298.777 60.2091 298.673 60.2069C298.568 60.2046 298.411 60.1966 298.201 60.1829L298.201 58.6243L298.447 58.638C298.638 58.6471 298.821 58.6403 298.994 58.6175C299.167 58.5947 299.313 58.5423 299.431 58.4603C299.545 58.3828 299.651 58.221 299.749 57.9749C299.847 57.7288 299.887 57.5784 299.869 57.5238L297.134 49.7445L299.301 49.7445L300.928 55.2405Z"/>
<path d="M311.927 50.5443C312.529 51.1868 312.83 52.1302 312.83 53.3743C312.83 54.6868 312.535 55.6872 311.945 56.3753C311.354 57.0635 310.594 57.4075 309.665 57.4075C309.072 57.4075 308.58 57.2594 308.188 56.9632C307.974 56.7991 307.764 56.5599 307.559 56.2454L307.559 60.1282L305.632 60.1282L305.632 49.7445L307.498 49.7445L307.498 50.845C307.707 50.5215 307.931 50.2663 308.168 50.0794C308.601 49.7467 309.116 49.5804 309.713 49.5804C310.583 49.5804 311.321 49.9017 311.927 50.5443ZM310.82 53.47C310.82 52.8958 310.689 52.3877 310.427 51.9456C310.165 51.5036 309.74 51.2825 309.152 51.2825C308.446 51.2825 307.96 51.6175 307.696 52.2874C307.559 52.6429 307.491 53.0941 307.491 53.6409C307.491 54.5068 307.721 55.1152 308.181 55.4661C308.455 55.6712 308.778 55.7738 309.152 55.7738C309.694 55.7738 310.108 55.5641 310.393 55.1448C310.678 54.7256 310.82 54.1673 310.82 53.47Z"/>
<path d="M317.649 55.8079L317.649 57.264L316.726 57.2982C315.806 57.3301 315.177 57.1706 314.84 56.8196C314.621 56.5963 314.511 56.2523 314.511 55.7874L314.511 51.2005L313.472 51.2005L313.472 49.8128L314.511 49.8128L314.511 47.7347L316.439 47.7347L316.439 49.8128L317.649 49.8128L317.649 51.2005L316.439 51.2005L316.439 55.138C316.439 55.4433 316.478 55.6336 316.555 55.7088C316.633 55.784 316.87 55.8216 317.266 55.8216C317.326 55.8216 317.388 55.8205 317.454 55.8182C317.52 55.8159 317.585 55.8125 317.649 55.8079Z"/>
</g>
</g>
<g opacity="1">
<path d="M359.894 43.9844C359.894 40.1636 362.991 37.0662 366.812 37.0662L425.66 37.0662C429.48 37.0662 432.578 40.1636 432.578 43.9844L432.578 60.4436C432.578 64.2644 429.48 67.3618 425.66 67.3618L366.812 67.3618C362.991 67.3618 359.894 64.2644 359.894 60.4436L359.894 43.9844Z" fill="#f292aa" fill-rule="nonzero" opacity="1" stroke="none"/>
<g fill="#ffffff" opacity="1" stroke="none">
<path d="M381.208 57.1956L376.641 57.1956L376.641 47.1195L381.536 47.1195C382.771 47.1377 383.646 47.4954 384.161 48.1927C384.471 48.6211 384.626 49.1338 384.626 49.7308C384.626 50.346 384.471 50.8405 384.161 51.2142C383.988 51.4238 383.732 51.6152 383.395 51.7884C383.91 51.9752 384.299 52.2715 384.561 52.6771C384.823 53.0827 384.954 53.5749 384.954 54.1536C384.954 54.7506 384.803 55.2861 384.503 55.7601C384.311 56.0745 384.072 56.3389 383.785 56.553C383.461 56.7991 383.08 56.9678 382.64 57.0589C382.2 57.1501 381.723 57.1956 381.208 57.1956ZM381.16 52.7591L378.651 52.7591L378.651 55.4456L381.126 55.4456C381.568 55.4456 381.912 55.3864 382.158 55.2679C382.605 55.0491 382.828 54.6299 382.828 54.0101C382.828 53.486 382.611 53.126 382.178 52.93C381.937 52.8206 381.597 52.7637 381.16 52.7591ZM382.206 50.8382C382.479 50.6741 382.616 50.3802 382.616 49.9564C382.616 49.487 382.434 49.1771 382.069 49.0267C381.755 48.9219 381.354 48.8695 380.866 48.8695L378.651 48.8695L378.651 51.0911L381.126 51.0911C381.568 51.0911 381.928 51.0068 382.206 50.8382Z"/>
<path d="M391.339 56.1429C391.32 56.1657 391.275 56.234 391.202 56.348C391.129 56.4619 391.042 56.5622 390.942 56.6488C390.637 56.9222 390.342 57.109 390.057 57.2093C389.772 57.3096 389.438 57.3597 389.055 57.3597C387.953 57.3597 387.21 56.9632 386.827 56.1702C386.613 55.7327 386.506 55.0879 386.506 54.2357L386.506 49.7445L388.502 49.7445L388.502 54.2357C388.502 54.6595 388.552 54.9785 388.652 55.1927C388.83 55.571 389.178 55.7601 389.698 55.7601C390.363 55.7601 390.819 55.4912 391.065 54.9534C391.193 54.6618 391.257 54.2767 391.257 53.7982L391.257 49.7445L393.232 49.7445L393.232 57.1956L391.339 57.1956L391.339 56.1429Z"/>
<path d="M398.605 47.0579L398.605 48.6439C398.496 48.6302 398.312 48.6199 398.055 48.6131C397.797 48.6063 397.62 48.6632 397.522 48.784C397.424 48.9048 397.375 49.0381 397.375 49.1839L397.375 49.8128L398.653 49.8128L398.653 51.1868L397.375 51.1868L397.375 57.1956L395.433 57.1956L395.433 51.1868L394.346 51.1868L394.346 49.8128L395.413 49.8128L395.413 49.3343C395.413 48.5368 395.547 47.9876 395.816 47.6868C396.099 47.2402 396.78 47.0169 397.86 47.0169C397.983 47.0169 398.095 47.0203 398.195 47.0272C398.295 47.034 398.432 47.0443 398.605 47.0579Z"/>
<path d="M403.267 47.0579L403.267 48.6439C403.158 48.6302 402.974 48.6199 402.717 48.6131C402.46 48.6063 402.282 48.6632 402.184 48.784C402.086 48.9048 402.037 49.0381 402.037 49.1839L402.037 49.8128L403.315 49.8128L403.315 51.1868L402.037 51.1868L402.037 57.1956L400.095 57.1956L400.095 51.1868L399.009 51.1868L399.009 49.8128L400.075 49.8128L400.075 49.3343C400.075 48.5368 400.209 47.9876 400.478 47.6868C400.761 47.2402 401.442 47.0169 402.522 47.0169C402.645 47.0169 402.757 47.0203 402.857 47.0272C402.957 47.034 403.094 47.0443 403.267 47.0579Z"/>
<path d="M410.814 55.0081C410.764 55.4502 410.534 55.8991 410.124 56.3548C409.486 57.0794 408.592 57.4417 407.444 57.4417C406.496 57.4417 405.66 57.1364 404.935 56.5257C404.211 55.915 403.848 54.9215 403.848 53.5452C403.848 52.2555 404.175 51.2666 404.829 50.5784C405.483 49.8903 406.332 49.5462 407.376 49.5462C407.995 49.5462 408.554 49.6624 409.051 49.8948C409.547 50.1273 409.957 50.4941 410.281 50.9954C410.573 51.4375 410.762 51.9502 410.848 52.5335C410.898 52.8753 410.919 53.3675 410.91 54.0101L405.81 54.0101C405.838 54.7575 406.072 55.2816 406.514 55.5823C406.783 55.7692 407.107 55.8626 407.485 55.8626C407.886 55.8626 408.212 55.7487 408.463 55.5208C408.599 55.3978 408.72 55.2269 408.825 55.0081L410.814 55.0081ZM408.886 52.7249C408.855 52.2099 408.698 51.8192 408.418 51.5526C408.138 51.286 407.79 51.1527 407.376 51.1527C406.925 51.1527 406.575 51.2939 406.326 51.5765C406.078 51.859 405.922 52.2419 405.858 52.7249L408.886 52.7249Z"/>
<path d="M415.968 51.5423C415.185 51.5423 414.658 51.7975 414.389 52.3079C414.239 52.595 414.164 53.0371 414.164 53.6341L414.164 57.1956L412.202 57.1956L412.202 49.7445L414.061 49.7445L414.061 51.0433C414.362 50.5465 414.624 50.207 414.847 50.0247C415.212 49.7194 415.686 49.5667 416.269 49.5667C416.306 49.5667 416.336 49.5679 416.362 49.5701C416.387 49.5724 416.442 49.5758 416.529 49.5804L416.529 51.5765C416.406 51.5628 416.297 51.5537 416.201 51.5491C416.105 51.5446 416.028 51.5423 415.968 51.5423Z"/>
</g>
</g>
<g opacity="1">
<path d="M360.599 110.171C360.599 107.519 363.309 105.369 366.651 105.369L426.526 105.369C429.868 105.369 432.578 107.519 432.578 110.171L432.578 130.872C432.578 133.524 429.868 135.675 426.526 135.675L366.651 135.675C363.309 135.675 360.599 133.524 360.599 130.872L360.599 110.171Z" fill="#e4bc8a" fill-rule="nonzero" opacity="1" stroke="none"/>
<g fill="#ffffff" opacity="1" stroke="none">
<path d="M377.15 124.367C376.398 125.055 375.437 125.399 374.266 125.399C372.816 125.399 371.677 124.934 370.848 124.005C370.018 123.07 369.604 121.79 369.604 120.163C369.604 118.404 370.075 117.048 371.019 116.095C371.839 115.266 372.883 114.851 374.149 114.851C375.845 114.851 377.084 115.407 377.868 116.519C378.301 117.144 378.534 117.77 378.565 118.399L376.46 118.399C376.323 117.916 376.148 117.552 375.934 117.305C375.551 116.868 374.983 116.649 374.231 116.649C373.466 116.649 372.862 116.958 372.42 117.575C371.978 118.193 371.757 119.067 371.757 120.197C371.757 121.327 371.99 122.174 372.458 122.737C372.925 123.299 373.518 123.581 374.238 123.581C374.977 123.581 375.539 123.339 375.927 122.856C376.141 122.596 376.319 122.207 376.46 121.687L378.545 121.687C378.363 122.786 377.898 123.679 377.15 124.367Z"/>
<path d="M386.728 120.744L386.728 125.119L384.738 125.119L384.738 120.587C384.738 120.186 384.67 119.862 384.533 119.616C384.355 119.27 384.018 119.096 383.521 119.096C383.007 119.096 382.616 119.268 382.349 119.613C382.083 119.957 381.949 120.448 381.949 121.086L381.949 125.119L380.008 125.119L380.008 115.077L381.949 115.077L381.949 118.638C382.232 118.205 382.559 117.904 382.93 117.733C383.302 117.562 383.692 117.476 384.103 117.476C384.563 117.476 384.981 117.556 385.357 117.716C385.733 117.875 386.042 118.119 386.283 118.447C386.488 118.725 386.614 119.011 386.659 119.305C386.705 119.599 386.728 120.079 386.728 120.744Z"/>
<path d="M388.826 118.474C389.341 117.818 390.225 117.49 391.479 117.49C392.294 117.49 393.019 117.652 393.652 117.975C394.286 118.299 394.603 118.91 394.603 119.807L394.603 123.225C394.603 123.462 394.607 123.749 394.616 124.087C394.63 124.342 394.669 124.515 394.732 124.606C394.796 124.697 394.892 124.773 395.02 124.832L395.02 125.119L392.9 125.119C392.841 124.969 392.8 124.827 392.777 124.695C392.755 124.563 392.736 124.413 392.723 124.244C392.454 124.536 392.144 124.784 391.793 124.989C391.374 125.231 390.9 125.351 390.371 125.351C389.697 125.351 389.139 125.159 388.7 124.774C388.26 124.389 388.04 123.843 388.04 123.136C388.04 122.22 388.393 121.557 389.1 121.147C389.487 120.924 390.057 120.764 390.809 120.669L391.472 120.587C391.832 120.541 392.089 120.484 392.244 120.416C392.522 120.297 392.661 120.113 392.661 119.862C392.661 119.557 392.555 119.346 392.343 119.23C392.131 119.114 391.82 119.055 391.41 119.055C390.95 119.055 390.624 119.169 390.433 119.397C390.296 119.566 390.205 119.794 390.159 120.081L388.279 120.081C388.32 119.429 388.503 118.894 388.826 118.474ZM390.275 123.711C390.458 123.861 390.681 123.936 390.945 123.936C391.365 123.936 391.751 123.813 392.104 123.567C392.457 123.321 392.641 122.872 392.654 122.22L392.654 121.496C392.531 121.573 392.407 121.636 392.282 121.684C392.156 121.732 391.984 121.776 391.766 121.817L391.328 121.899C390.918 121.972 390.624 122.061 390.446 122.166C390.146 122.344 389.995 122.619 389.995 122.993C389.995 123.326 390.089 123.565 390.275 123.711Z"/>
<path d="M399.839 119.11C399.178 119.11 398.725 119.39 398.479 119.951C398.351 120.247 398.287 120.625 398.287 121.086L398.287 125.119L396.346 125.119L396.346 117.681L398.226 117.681L398.226 118.768C398.476 118.385 398.713 118.11 398.937 117.941C399.338 117.64 399.846 117.49 400.461 117.49C401.231 117.49 401.861 117.692 402.351 118.095C402.841 118.498 403.086 119.167 403.086 120.101L403.086 125.119L401.09 125.119L401.09 120.587C401.09 120.195 401.037 119.894 400.933 119.684C400.741 119.302 400.377 119.11 399.839 119.11Z"/>
<path d="M408.391 119.11C407.73 119.11 407.276 119.39 407.03 119.951C406.903 120.247 406.839 120.625 406.839 121.086L406.839 125.119L404.897 125.119L404.897 117.681L406.777 117.681L406.777 118.768C407.028 118.385 407.265 118.11 407.488 117.941C407.889 117.64 408.397 117.49 409.013 117.49C409.783 117.49 410.413 117.692 410.903 118.095C411.393 118.498 411.638 119.167 411.638 120.101L411.638 125.119L409.642 125.119L409.642 120.587C409.642 120.195 409.589 119.894 409.484 119.684C409.293 119.302 408.928 119.11 408.391 119.11Z"/>
<path d="M419.813 122.931C419.763 123.373 419.533 123.822 419.123 124.278C418.485 125.003 417.592 125.365 416.443 125.365C415.495 125.365 414.659 125.06 413.935 124.449C413.21 123.838 412.848 122.845 412.848 121.469C412.848 120.179 413.175 119.19 413.829 118.502C414.483 117.814 415.331 117.469 416.375 117.469C416.995 117.469 417.553 117.586 418.05 117.818C418.547 118.051 418.957 118.417 419.28 118.919C419.572 119.361 419.761 119.873 419.848 120.457C419.898 120.799 419.918 121.291 419.909 121.933L414.81 121.933C414.837 122.681 415.072 123.205 415.514 123.506C415.783 123.692 416.106 123.786 416.484 123.786C416.885 123.786 417.211 123.672 417.462 123.444C417.599 123.321 417.719 123.15 417.824 122.931L419.813 122.931ZM417.886 120.648C417.854 120.133 417.698 119.742 417.417 119.476C417.137 119.209 416.79 119.076 416.375 119.076C415.924 119.076 415.574 119.217 415.326 119.5C415.077 119.782 414.921 120.165 414.857 120.648L417.886 120.648Z"/>
<path d="M421.263 115.043L423.211 115.043L423.211 125.119L421.263 125.119L421.263 115.043Z"/>
</g>
</g>
<g opacity="1">
<path d="M130.826 112.292C130.826 108.471 133.923 105.374 137.744 105.374L195.767 105.374C199.588 105.374 202.686 108.471 202.686 112.292L202.686 128.751C202.686 132.572 199.588 135.669 195.767 135.669L137.744 135.669C133.923 135.669 130.826 132.572 130.826 128.751L130.826 112.292Z" fill="#ff5983" fill-rule="nonzero" opacity="1" stroke="none"/>
<g fill="#ffffff" opacity="1" stroke="none">
<path d="M153.573 117.211L148.521 117.211L148.521 119.529L152.944 119.529L152.944 121.279L148.521 121.279L148.521 125.503L146.429 125.503L146.429 115.441L153.573 115.441L153.573 117.211Z"/>
<path d="M156.827 118.052L156.827 125.503L154.851 125.503L154.851 118.052L156.827 118.052ZM156.827 115.366L156.827 117.163L154.851 117.163L154.851 115.366L156.827 115.366Z"/>
<path d="M158.754 115.427L160.703 115.427L160.703 125.503L158.754 125.503L158.754 115.427Z"/>
<path d="M168.981 123.316C168.931 123.758 168.701 124.207 168.29 124.662C167.652 125.387 166.759 125.749 165.611 125.749C164.663 125.749 163.827 125.444 163.102 124.833C162.377 124.223 162.015 123.229 162.015 121.853C162.015 120.563 162.342 119.574 162.996 118.886C163.65 118.198 164.499 117.854 165.542 117.854C166.162 117.854 166.72 117.97 167.217 118.202C167.714 118.435 168.124 118.802 168.448 119.303C168.739 119.745 168.928 120.258 169.015 120.841C169.065 121.183 169.086 121.675 169.077 122.318L163.977 122.318C164.004 123.065 164.239 123.589 164.681 123.89C164.95 124.077 165.274 124.17 165.652 124.17C166.053 124.17 166.379 124.056 166.629 123.828C166.766 123.705 166.887 123.534 166.992 123.316L168.981 123.316ZM167.053 121.033C167.021 120.518 166.865 120.127 166.585 119.86C166.305 119.594 165.957 119.46 165.542 119.46C165.091 119.46 164.741 119.602 164.493 119.884C164.245 120.167 164.089 120.549 164.025 121.033L167.053 121.033Z"/>
<path d="M174.272 115.427L176.364 115.427L176.364 125.503L174.272 125.503L174.272 115.427Z"/>
<path d="M182.783 125.784C181.343 125.784 180.242 125.392 179.481 124.608C178.46 123.646 177.95 122.261 177.95 120.451C177.95 118.606 178.46 117.22 179.481 116.295C180.242 115.511 181.343 115.119 182.783 115.119C184.223 115.119 185.323 115.511 186.084 116.295C187.101 117.22 187.609 118.606 187.609 120.451C187.609 122.261 187.101 123.646 186.084 124.608C185.323 125.392 184.223 125.784 182.783 125.784ZM184.772 123.076C185.26 122.461 185.503 121.586 185.503 120.451C185.503 119.321 185.258 118.447 184.768 117.83C184.279 117.212 183.617 116.904 182.783 116.904C181.949 116.904 181.283 117.211 180.787 117.826C180.29 118.442 180.041 119.317 180.041 120.451C180.041 121.586 180.29 122.461 180.787 123.076C181.283 123.692 181.949 123.999 182.783 123.999C183.617 123.999 184.28 123.692 184.772 123.076Z"/>
</g>
</g>
<g opacity="1">
<g opacity="1">
<path d="M97.3438 39.9688C96.5153 39.9688 95.8438 40.6403 95.8438 41.4688C95.8438 42.2972 96.5153 42.9688 97.3438 42.9688C103.551 42.9688 109.761 42.9688 115.969 42.9688C116.797 42.9688 117.469 42.2972 117.469 41.4688C117.469 40.6403 116.797 39.9687 115.969 39.9688C109.761 39.9688 103.551 39.9688 97.3438 39.9688Z" fill="#ababab" stroke="none"/>
</g>
<g opacity="1">
<g opacity="1">
<path d="M107.719 35.4375C107.348 35.5381 107.018 35.7656 106.812 36.125C106.401 36.8438 106.656 37.7756 107.375 38.1875C108.346 38.7437 107.919 38.5067 108.344 38.75C108.016 38.5624 109.016 39.1249 109.344 39.3125C109.619 39.4701 109.598 39.4527 109.844 39.5938C110.004 39.6853 110.153 39.7834 110.312 39.875C110.646 40.0661 111.643 40.6266 111.312 40.4375C111.965 40.8113 112.629 41.1887 113.281 41.5625C113.609 41.7501 114.577 42.3126 114.25 42.125C111.958 40.8115 114.268 42.1246 115.25 42.6875C115.969 43.0994 116.869 42.8438 117.281 42.125C117.693 41.4062 117.438 40.5056 116.719 40.0938C115.742 39.5342 116.175 39.7746 115.75 39.5312C115.636 39.4662 115.563 39.4337 115.406 39.3438C115.184 39.2163 114.966 39.0924 114.75 38.9688C114.423 38.7811 114.109 38.5939 113.781 38.4062C112.799 37.8433 111.826 37.2817 110.844 36.7188C110.516 36.5311 109.516 35.9686 109.844 36.1562C112.136 37.4697 109.857 36.1567 108.875 35.5938C108.516 35.3878 108.089 35.3369 107.719 35.4375Z" fill="#ababab" stroke="none"/>
</g>
<g opacity="1">
<path d="M116.375 40.1562C116.005 40.0546 115.61 40.1076 115.25 40.3125C114.252 40.8804 114.675 40.6332 114.25 40.875C114.578 40.6886 113.609 41.2198 113.281 41.4062C112.954 41.5927 112.609 41.7823 112.281 41.9688C111.956 42.1536 110.986 42.717 111.312 42.5312C110.655 42.9056 110.001 43.2819 109.344 43.6562C109.016 43.8427 108.047 44.4052 108.375 44.2188C110.668 42.9138 108.358 44.222 107.375 44.7812C106.655 45.1911 106.403 46.0925 106.812 46.8125C107.222 47.5325 108.155 47.7848 108.875 47.375C109.855 46.8172 109.419 47.0543 109.844 46.8125C109.516 46.9989 110.485 46.4364 110.812 46.25C110.974 46.158 111.151 46.092 111.312 46C111.392 45.9545 111.395 45.948 111.469 45.9062C111.507 45.8847 111.764 45.7462 111.812 45.7188C112.795 45.1595 113.767 44.5905 114.75 44.0312C115.078 43.8448 116.078 43.2823 115.75 43.4688C113.457 44.7737 115.736 43.4655 116.719 42.9062C117.439 42.4964 117.691 41.595 117.281 40.875C117.076 40.515 116.745 40.2579 116.375 40.1562Z" fill="#ababab" stroke="none"/>
</g>
</g>
</g>
<g opacity="1">
<g opacity="1">
<path d="M99.3438 119.031C98.5153 119.031 97.8438 119.703 97.8438 120.531C97.8438 121.36 98.5153 122.031 99.3438 122.031C105.551 122.031 111.761 122.031 117.969 122.031C118.797 122.031 119.469 121.36 119.469 120.531C119.469 119.703 118.797 119.031 117.969 119.031C111.761 119.031 105.551 119.031 99.3438 119.031Z" fill="#ababab" stroke="none"/>
</g>
<g opacity="1">
<g opacity="1">
<path d="M107.625 114.469C107.255 114.368 106.828 114.419 106.469 114.625C105.498 115.181 105.925 114.944 105.5 115.188C105.827 115 104.827 115.562 104.5 115.75C104.173 115.938 103.859 116.125 103.531 116.312C103.198 116.504 102.201 117.064 102.531 116.875C101.879 117.249 101.215 117.626 100.562 118C100.235 118.188 99.2663 118.75 99.5938 118.562C101.886 117.249 99.6074 118.562 98.625 119.125C97.9062 119.537 97.6506 120.437 98.0625 121.156C98.4744 121.875 99.375 122.131 100.094 121.719C102.059 120.593 101.776 120.758 102.062 120.594C102.226 120.5 102.399 120.406 102.562 120.312C102.812 120.17 102.898 120.126 103.062 120.031C103.201 119.952 103.627 119.7 104.031 119.469C104.689 119.092 105.342 118.721 106 118.344C106.327 118.156 107.296 117.594 106.969 117.781C104.676 119.095 106.986 117.782 107.969 117.219C108.688 116.807 108.943 115.906 108.531 115.188C108.325 114.828 107.995 114.569 107.625 114.469Z" fill="#ababab" stroke="none"/>
</g>
<g opacity="1">
<path d="M98.9688 119.188C98.5986 119.289 98.2674 119.546 98.0625 119.906C97.6527 120.626 97.905 121.528 98.625 121.938C99.6016 122.493 99.1691 122.258 99.5938 122.5C99.2662 122.314 100.266 122.876 100.594 123.062C100.921 123.249 101.235 123.439 101.562 123.625C101.884 123.808 102.856 124.372 102.531 124.188C103.189 124.562 103.842 124.938 104.5 125.312C104.828 125.499 105.828 126.061 105.5 125.875C103.207 124.57 105.486 125.878 106.469 126.438C107.189 126.847 108.121 126.595 108.531 125.875C108.941 125.155 108.689 124.222 107.969 123.812C106.971 123.245 107.393 123.492 106.969 123.25C106.948 123.238 106.928 123.231 106.906 123.219C106.541 123.011 106.132 122.763 106 122.688C105.443 122.37 105.327 122.311 105 122.125C104.017 121.566 103.045 121.028 102.062 120.469C101.735 120.282 100.766 119.72 101.094 119.906C103.386 121.211 101.076 119.903 100.094 119.344C99.7338 119.139 99.3389 119.086 98.9688 119.188Z" fill="#ababab" stroke="none"/>
</g>
</g>
</g>
<g opacity="1">
<g opacity="1">
<path d="M228.5 50.7188C227.672 50.7188 227 51.3903 227 52.2188C227 53.0472 227.672 53.7188 228.5 53.7188C234.707 53.7188 240.918 53.7188 247.125 53.7188C247.953 53.7188 248.625 53.0472 248.625 52.2188C248.625 51.3903 247.953 50.7187 247.125 50.7188C240.918 50.7188 234.707 50.7188 228.5 50.7188Z" fill="#ffffff" stroke="none"/>
</g>
<g opacity="1">
<g opacity="1">
<path d="M238.875 46.1562C238.505 46.2568 238.175 46.5156 237.969 46.875C237.557 47.5938 237.812 48.4944 238.531 48.9062C239.502 49.4624 239.075 49.2255 239.5 49.4688C239.173 49.2811 240.173 49.8436 240.5 50.0312C240.775 50.1889 240.754 50.1714 241 50.3125C241.16 50.4041 241.309 50.5022 241.469 50.5938C241.802 50.7849 242.799 51.3454 242.469 51.1562C243.121 51.53 243.785 51.9075 244.438 52.2812C244.765 52.4689 245.734 53.0314 245.406 52.8438C243.114 51.5303 245.424 52.8433 246.406 53.4062C247.125 53.8181 248.026 53.5938 248.438 52.875C248.849 52.1562 248.594 51.2244 247.875 50.8125C246.904 50.2563 247.331 50.4933 246.906 50.25C246.576 50.0609 246.456 50.0027 245.906 49.6875C245.746 49.5959 245.597 49.4978 245.438 49.4062C245.189 49.2637 245.104 49.2206 244.938 49.125C243.955 48.5621 242.982 48.0004 242 47.4375C241.673 47.2499 240.673 46.6873 241 46.875C243.292 48.1885 241.014 46.8754 240.031 46.3125C239.672 46.1066 239.245 46.0557 238.875 46.1562Z" fill="#ffffff" stroke="none"/>
</g>
<g opacity="1">
<path d="M247.531 50.9062C247.161 50.8046 246.766 50.8263 246.406 51.0312C245.412 51.5972 245.831 51.352 245.406 51.5938C245.734 51.4073 244.765 51.9698 244.438 52.1562C244.16 52.3141 244.187 52.2954 243.938 52.4375C243.774 52.5307 243.601 52.6255 243.438 52.7188C243.116 52.9017 242.144 53.4662 242.469 53.2812C241.811 53.6556 241.158 54.0319 240.5 54.4062C240.172 54.5927 239.204 55.1239 239.531 54.9375C241.824 53.6325 239.514 54.9407 238.531 55.5C237.811 55.9098 237.559 56.8425 237.969 57.5625C238.379 58.2825 239.311 58.5348 240.031 58.125C241.008 57.5691 240.575 57.8043 241 57.5625C240.672 57.7489 241.641 57.1864 241.969 57C242.133 56.9068 242.305 56.812 242.469 56.7188C242.548 56.6736 242.552 56.6664 242.625 56.625C242.663 56.6035 242.92 56.465 242.969 56.4375C243.951 55.8782 244.924 55.3093 245.906 54.75C246.234 54.5636 247.234 54.0011 246.906 54.1875C244.614 55.4925 246.893 54.2155 247.875 53.6562C248.595 53.2464 248.847 52.3137 248.438 51.5938C248.233 51.2338 247.901 51.0079 247.531 50.9062Z" fill="#ffffff" stroke="none"/>
</g>
</g>
</g>
<g opacity="1">
<g opacity="1">
<path d="M211.812 119.031C210.984 119.031 210.312 119.703 210.312 120.531C210.312 121.36 210.984 122.031 211.812 122.031C218.02 122.031 224.23 122.031 230.438 122.031C231.266 122.031 231.938 121.36 231.938 120.531C231.938 119.703 231.266 119.031 230.438 119.031C224.23 119.031 218.02 119.031 211.812 119.031Z" fill="#ffffff" stroke="none"/>
</g>
<g opacity="1">
<g opacity="1">
<path d="M220.062 114.469C219.692 114.368 219.297 114.419 218.938 114.625C217.943 115.195 218.362 114.944 217.938 115.188C218.265 115 217.296 115.562 216.969 115.75C216.641 115.938 216.327 116.125 216 116.312C215.66 116.507 214.667 117.066 215 116.875C214.348 117.249 213.684 117.626 213.031 118C212.704 118.188 211.735 118.75 212.062 118.562C214.355 117.249 212.045 118.562 211.062 119.125C210.344 119.537 210.119 120.437 210.531 121.156C210.943 121.875 211.844 122.131 212.562 121.719C214.527 120.593 214.245 120.758 214.531 120.594C214.859 120.406 215.173 120.219 215.5 120.031C216.482 119.468 217.486 118.907 218.469 118.344C218.796 118.156 219.765 117.594 219.438 117.781C217.145 119.095 219.455 117.782 220.438 117.219C221.156 116.807 221.381 115.906 220.969 115.188C220.763 114.828 220.433 114.569 220.062 114.469Z" fill="#ffffff" stroke="none"/>
</g>
<g opacity="1">
<path d="M211.438 119.188C211.067 119.289 210.736 119.546 210.531 119.906C210.121 120.626 210.374 121.528 211.094 121.938C212.07 122.493 211.638 122.258 212.062 122.5C211.735 122.314 212.704 122.876 213.031 123.062C213.359 123.249 213.704 123.439 214.031 123.625C214.353 123.808 215.325 124.372 215 124.188C215.658 124.562 216.311 124.938 216.969 125.312C217.296 125.499 218.296 126.061 217.969 125.875C215.676 124.57 217.955 125.878 218.938 126.438C219.657 126.847 220.59 126.595 221 125.875C221.41 125.155 221.157 124.222 220.438 123.812C219.44 123.245 219.862 123.492 219.438 123.25C219.417 123.238 219.397 123.231 219.375 123.219C219.01 123.011 218.601 122.763 218.469 122.688C218.141 122.501 217.796 122.311 217.469 122.125C216.486 121.566 215.514 121.028 214.531 120.469C214.204 120.282 213.204 119.72 213.531 119.906C215.824 121.211 213.545 119.903 212.562 119.344C212.203 119.139 211.808 119.086 211.438 119.188Z" fill="#ffffff" stroke="none"/>
</g>
</g>
</g>
<g opacity="1">
<g opacity="1">
<path d="M334.656 119.031C333.828 119.031 333.156 119.703 333.156 120.531C333.156 121.36 333.828 122.031 334.656 122.031C340.864 122.031 347.074 122.031 353.281 122.031C354.11 122.031 354.781 121.36 354.781 120.531C354.781 119.703 354.11 119.031 353.281 119.031C347.074 119.031 340.864 119.031 334.656 119.031Z" fill="#ffffff" stroke="none"/>
</g>
<g opacity="1">
<g opacity="1">
<path d="M342.906 114.469C342.536 114.368 342.109 114.419 341.75 114.625C340.773 115.185 341.206 114.944 340.781 115.188C341.109 115 340.14 115.562 339.812 115.75C339.535 115.909 339.562 115.888 339.312 116.031C339.295 116.041 339.174 116.115 339.156 116.125C339.044 116.189 338.924 116.248 338.812 116.312C338.491 116.497 337.519 117.061 337.844 116.875C337.186 117.252 336.533 117.623 335.875 118C335.548 118.188 334.548 118.75 334.875 118.562C337.167 117.249 334.889 118.562 333.906 119.125C333.187 119.537 332.932 120.437 333.344 121.156C333.756 121.875 334.687 122.131 335.406 121.719C336.383 121.159 335.95 121.4 336.375 121.156C336.489 121.091 336.562 121.059 336.719 120.969C336.918 120.854 337.28 120.648 337.375 120.594C337.702 120.406 338.016 120.219 338.344 120.031C338.665 119.847 339.637 119.283 339.312 119.469C339.97 119.092 340.624 118.721 341.281 118.344C341.609 118.156 342.609 117.594 342.281 117.781C339.989 119.095 342.268 117.782 343.25 117.219C343.969 116.807 344.224 115.906 343.812 115.188C343.607 114.828 343.277 114.569 342.906 114.469Z" fill="#ffffff" stroke="none"/>
</g>
<g opacity="1">
<path d="M334.25 119.188C333.88 119.289 333.549 119.546 333.344 119.906C332.934 120.626 333.186 121.528 333.906 121.938C334.901 122.503 334.482 122.258 334.906 122.5C334.579 122.314 335.547 122.876 335.875 123.062C336.203 123.249 336.516 123.439 336.844 123.625C337.184 123.818 338.176 124.377 337.844 124.188C338.496 124.559 339.16 124.941 339.812 125.312C340.14 125.499 341.109 126.061 340.781 125.875C338.489 124.57 340.799 125.878 341.781 126.438C342.501 126.847 343.403 126.595 343.812 125.875C344.222 125.155 343.97 124.222 343.25 123.812C342.276 123.258 342.706 123.492 342.281 123.25C341.95 123.061 341.834 123.002 341.281 122.688C340.954 122.501 340.64 122.311 340.312 122.125C339.33 121.566 338.326 121.028 337.344 120.469C337.016 120.282 336.048 119.72 336.375 119.906C338.668 121.211 336.389 119.903 335.406 119.344C335.046 119.139 334.62 119.086 334.25 119.188Z" fill="#ffffff" stroke="none"/>
</g>
</g>
</g>
<g opacity="1">
<g opacity="1">
<path d="M335.656 50.7188C334.828 50.7188 334.156 51.3903 334.156 52.2188C334.156 53.0472 334.828 53.7188 335.656 53.7188C341.864 53.7188 348.074 53.7188 354.281 53.7188C355.11 53.7188 355.781 53.0472 355.781 52.2188C355.781 51.3903 355.11 50.7187 354.281 50.7188C348.074 50.7188 341.864 50.7188 335.656 50.7188Z" fill="#ffffff" stroke="none"/>
</g>
<g opacity="1">
<g opacity="1">
<path d="M346.031 46.1562C345.661 46.2568 345.331 46.5156 345.125 46.875C344.713 47.5938 344.937 48.4944 345.656 48.9062C346.65 49.4759 346.232 49.2254 346.656 49.4688C346.329 49.2811 347.298 49.8436 347.625 50.0312C347.952 50.2189 348.298 50.4061 348.625 50.5938C348.946 50.7779 349.919 51.3424 349.594 51.1562C350.251 51.533 350.905 51.9045 351.562 52.2812C351.89 52.4689 352.859 53.0314 352.531 52.8438C350.239 51.5303 352.549 52.8433 353.531 53.4062C354.25 53.8181 355.151 53.5938 355.562 52.875C355.974 52.1562 355.75 51.2244 355.031 50.8125C354.037 50.2429 354.456 50.4934 354.031 50.25C353.706 50.0639 353.604 49.9977 353.062 49.6875C352.735 49.4999 352.39 49.3126 352.062 49.125C351.08 48.5621 350.107 48.0004 349.125 47.4375C348.798 47.2499 347.829 46.6873 348.156 46.875C350.449 48.1885 348.139 46.8754 347.156 46.3125C346.797 46.1066 346.402 46.0557 346.031 46.1562Z" fill="#ffffff" stroke="none"/>
</g>
<g opacity="1">
<path d="M354.656 50.9062C354.286 50.8046 353.891 50.8263 353.531 51.0312C352.56 51.5838 352.987 51.352 352.562 51.5938C352.89 51.4073 351.89 51.9698 351.562 52.1562C351.235 52.3427 350.921 52.5323 350.594 52.7188C350.26 52.9086 349.264 53.4692 349.594 53.2812C348.941 53.6526 348.277 54.0349 347.625 54.4062C347.297 54.5927 346.329 55.1239 346.656 54.9375C348.949 53.6325 346.639 54.9407 345.656 55.5C344.936 55.9098 344.715 56.8425 345.125 57.5625C345.535 58.2825 346.436 58.5348 347.156 58.125C348.127 57.5724 347.7 57.8042 348.125 57.5625C348.455 57.3746 348.575 57.3132 349.125 57C349.453 56.8136 349.766 56.6239 350.094 56.4375C351.076 55.8782 352.08 55.3093 353.062 54.75C353.39 54.5636 354.359 54.0011 354.031 54.1875C351.739 55.4925 354.018 54.2155 355 53.6562C355.72 53.2464 355.972 52.3137 355.562 51.5938C355.358 51.2338 355.026 51.0079 354.656 50.9062Z" fill="#ffffff" stroke="none"/>
</g>
</g>
</g>
<g fill="#ffffff" opacity="1" stroke="none">
<path d="M255.112 22.553L252.973 22.553L252.973 26.176L250.881 26.176L250.881 16.0999L255.27 16.0999C256.281 16.0999 257.088 16.3596 257.69 16.8792C258.291 17.3987 258.592 18.2031 258.592 19.2923C258.592 20.4817 258.291 21.3225 257.69 21.8147C257.088 22.3069 256.229 22.553 255.112 22.553ZM256.097 20.4544C256.37 20.2128 256.507 19.83 256.507 19.3059C256.507 18.7818 256.369 18.4081 256.093 18.1848C255.818 17.9615 255.431 17.8499 254.935 17.8499L252.973 17.8499L252.973 20.8167L254.935 20.8167C255.431 20.8167 255.819 20.6959 256.097 20.4544Z"/>
<path d="M263.76 20.5227C262.976 20.5227 262.45 20.7779 262.181 21.2883C262.03 21.5755 261.955 22.0175 261.955 22.6145L261.955 26.176L259.993 26.176L259.993 18.7249L261.853 18.7249L261.853 20.0237C262.153 19.527 262.416 19.1874 262.639 19.0051C263.003 18.6998 263.477 18.5471 264.061 18.5471C264.097 18.5471 264.128 18.5483 264.153 18.5506C264.178 18.5528 264.234 18.5563 264.32 18.5608L264.32 20.5569C264.197 20.5432 264.088 20.5341 263.992 20.5296C263.897 20.525 263.819 20.5227 263.76 20.5227Z"/>
<path d="M271.676 19.6682C272.305 20.4566 272.619 21.3886 272.619 22.4641C272.619 23.5579 272.305 24.4933 271.676 25.2703C271.047 26.0473 270.092 26.4358 268.812 26.4358C267.531 26.4358 266.576 26.0473 265.947 25.2703C265.319 24.4933 265.004 23.5579 265.004 22.4641C265.004 21.3886 265.319 20.4566 265.947 19.6682C266.576 18.8798 267.531 18.4856 268.812 18.4856C270.092 18.4856 271.047 18.8798 271.676 19.6682ZM268.805 20.1331C268.235 20.1331 267.797 20.3347 267.489 20.7381C267.181 21.1414 267.028 21.7167 267.028 22.4641C267.028 23.2115 267.181 23.788 267.489 24.1936C267.797 24.5992 268.235 24.802 268.805 24.802C269.375 24.802 269.812 24.5992 270.117 24.1936C270.423 23.788 270.575 23.2115 270.575 22.4641C270.575 21.7167 270.423 21.1414 270.117 20.7381C269.812 20.3347 269.375 20.1331 268.805 20.1331Z"/>
<path d="M280.46 21.3977L278.464 21.3977C278.428 21.1197 278.334 20.8691 278.184 20.6458C277.965 20.345 277.625 20.1946 277.165 20.1946C276.509 20.1946 276.06 20.5204 275.819 21.1721C275.691 21.5185 275.627 21.9788 275.627 22.553C275.627 23.0999 275.691 23.5397 275.819 23.8723C276.051 24.4921 276.488 24.802 277.131 24.802C277.587 24.802 277.91 24.679 278.102 24.4329C278.293 24.1868 278.409 23.8678 278.45 23.4758L280.44 23.4758C280.394 24.0683 280.18 24.6288 279.797 25.1575C279.186 26.0097 278.282 26.4358 277.083 26.4358C275.885 26.4358 275.003 26.0803 274.438 25.3694C273.873 24.6585 273.59 23.7356 273.59 22.6008C273.59 21.3202 273.902 20.3245 274.527 19.6135C275.151 18.9026 276.012 18.5471 277.111 18.5471C278.045 18.5471 278.809 18.7568 279.404 19.176C279.999 19.5953 280.351 20.3359 280.46 21.3977Z"/>
<path d="M288.178 23.9885C288.128 24.4306 287.898 24.8795 287.487 25.3352C286.849 26.0598 285.956 26.4221 284.808 26.4221C283.86 26.4221 283.024 26.1168 282.299 25.5061C281.574 24.8954 281.212 23.902 281.212 22.5257C281.212 21.2359 281.539 20.247 282.193 19.5589C282.847 18.8707 283.696 18.5266 284.739 18.5266C285.359 18.5266 285.917 18.6428 286.414 18.8753C286.911 19.1077 287.321 19.4745 287.645 19.9758C287.936 20.4179 288.125 20.9306 288.212 21.5139C288.262 21.8557 288.283 22.3479 288.274 22.9905L283.174 22.9905C283.201 23.7379 283.436 24.262 283.878 24.5628C284.147 24.7496 284.471 24.843 284.849 24.843C285.25 24.843 285.576 24.7291 285.826 24.5012C285.963 24.3782 286.084 24.2073 286.189 23.9885L288.178 23.9885ZM286.25 21.7053C286.218 21.1904 286.062 20.7996 285.782 20.533C285.502 20.2664 285.154 20.1331 284.739 20.1331C284.288 20.1331 283.938 20.2744 283.69 20.5569C283.442 20.8395 283.286 21.2223 283.222 21.7053L286.25 21.7053Z"/>
<path d="M294.72 19.0667C295.303 19.4404 295.638 20.0829 295.725 20.9944L293.777 20.9944C293.749 20.7438 293.679 20.5455 293.565 20.3997C293.35 20.1354 292.986 20.0032 292.471 20.0032C292.047 20.0032 291.745 20.0693 291.565 20.2014C291.385 20.3336 291.295 20.4885 291.295 20.6663C291.295 20.8896 291.391 21.0514 291.582 21.1516C291.774 21.2564 292.45 21.4365 293.612 21.6917C294.387 21.874 294.968 22.1497 295.356 22.5188C295.738 22.8925 295.93 23.3596 295.93 23.9202C295.93 24.6585 295.655 25.2612 295.106 25.7283C294.557 26.1954 293.708 26.429 292.56 26.429C291.389 26.429 290.524 26.1817 289.966 25.6873C289.407 25.1928 289.128 24.5628 289.128 23.7971L291.104 23.7971C291.145 24.1435 291.234 24.3896 291.37 24.5354C291.612 24.7952 292.058 24.9251 292.71 24.9251C293.093 24.9251 293.397 24.8681 293.623 24.7542C293.848 24.6402 293.961 24.4693 293.961 24.2415C293.961 24.0227 293.87 23.8564 293.688 23.7425C293.505 23.6285 292.829 23.4326 291.657 23.1546C290.814 22.9449 290.22 22.6829 289.873 22.3684C289.527 22.0585 289.354 21.6119 289.354 21.0286C289.354 20.3404 289.624 19.7491 290.164 19.2547C290.704 18.7602 291.464 18.513 292.444 18.513C293.373 18.513 294.132 18.6975 294.72 19.0667Z"/>
<path d="M302.506 19.0667C303.089 19.4404 303.424 20.0829 303.511 20.9944L301.563 20.9944C301.535 20.7438 301.465 20.5455 301.351 20.3997C301.137 20.1354 300.772 20.0032 300.257 20.0032C299.833 20.0032 299.531 20.0693 299.351 20.2014C299.171 20.3336 299.081 20.4885 299.081 20.6663C299.081 20.8896 299.177 21.0514 299.368 21.1516C299.56 21.2564 300.237 21.4365 301.399 21.6917C302.173 21.874 302.754 22.1497 303.142 22.5188C303.525 22.8925 303.716 23.3596 303.716 23.9202C303.716 24.6585 303.441 25.2612 302.892 25.7283C302.343 26.1954 301.494 26.429 300.346 26.429C299.175 26.429 298.31 26.1817 297.752 25.6873C297.193 25.1928 296.914 24.5628 296.914 23.7971L298.89 23.7971C298.931 24.1435 299.02 24.3896 299.156 24.5354C299.398 24.7952 299.845 24.9251 300.496 24.9251C300.879 24.9251 301.183 24.8681 301.409 24.7542C301.634 24.6402 301.747 24.4693 301.747 24.2415C301.747 24.0227 301.656 23.8564 301.474 23.7425C301.292 23.6285 300.615 23.4326 299.444 23.1546C298.6 22.9449 298.006 22.6829 297.659 22.3684C297.313 22.0585 297.14 21.6119 297.14 21.0286C297.14 20.3404 297.41 19.7491 297.95 19.2547C298.49 18.7602 299.25 18.513 300.23 18.513C301.159 18.513 301.918 18.6975 302.506 19.0667Z"/>
<path d="M311.372 19.6682C312.001 20.4566 312.316 21.3886 312.316 22.4641C312.316 23.5579 312.001 24.4933 311.372 25.2703C310.743 26.0473 309.789 26.4358 308.508 26.4358C307.227 26.4358 306.273 26.0473 305.644 25.2703C305.015 24.4933 304.7 23.5579 304.7 22.4641C304.7 21.3886 305.015 20.4566 305.644 19.6682C306.273 18.8798 307.227 18.4856 308.508 18.4856C309.789 18.4856 310.743 18.8798 311.372 19.6682ZM308.501 20.1331C307.931 20.1331 307.493 20.3347 307.185 20.7381C306.878 21.1414 306.724 21.7167 306.724 22.4641C306.724 23.2115 306.878 23.788 307.185 24.1936C307.493 24.5992 307.931 24.802 308.501 24.802C309.071 24.802 309.508 24.5992 309.814 24.1936C310.119 23.788 310.272 23.2115 310.272 22.4641C310.272 21.7167 310.119 21.1414 309.814 20.7381C309.508 20.3347 309.071 20.1331 308.501 20.1331Z"/>
<path d="M317.456 20.5227C316.672 20.5227 316.146 20.7779 315.877 21.2883C315.727 21.5755 315.652 22.0175 315.652 22.6145L315.652 26.176L313.69 26.176L313.69 18.7249L315.549 18.7249L315.549 20.0237C315.85 19.527 316.112 19.1874 316.335 19.0051C316.7 18.6998 317.174 18.5471 317.757 18.5471C317.793 18.5471 317.824 18.5483 317.849 18.5506C317.874 18.5528 317.93 18.5563 318.017 18.5608L318.017 20.5569C317.894 20.5432 317.784 20.5341 317.689 20.5296C317.593 20.525 317.515 20.5227 317.456 20.5227Z"/>
</g>
<g opacity="1">
<g fill="#ffffff" opacity="1" stroke="none">
<path d="M247.196 114.703L249.288 114.703L249.288 124.779L247.196 124.779L247.196 114.703Z"/>
<path d="M255.707 125.06C254.267 125.06 253.167 124.668 252.405 123.884C251.385 122.922 250.874 121.537 250.874 119.728C250.874 117.882 251.385 116.497 252.405 115.571C253.167 114.788 254.267 114.396 255.707 114.396C257.147 114.396 258.248 114.788 259.009 115.571C260.025 116.497 260.533 117.882 260.533 119.728C260.533 121.537 260.025 122.922 259.009 123.884C258.248 124.668 257.147 125.06 255.707 125.06ZM257.696 122.353C258.184 121.737 258.428 120.862 258.428 119.728C258.428 118.598 258.183 117.724 257.693 117.106C257.203 116.489 256.541 116.18 255.707 116.18C254.873 116.18 254.208 116.487 253.711 117.103C253.214 117.718 252.966 118.593 252.966 119.728C252.966 120.862 253.214 121.737 253.711 122.353C254.208 122.968 254.873 123.276 255.707 123.276C256.541 123.276 257.204 122.968 257.696 122.353Z"/>
<path d="M270.309 120.828L268.135 120.828L268.135 124.779L266.077 124.779L266.077 114.703L271.02 114.703C271.726 114.717 272.27 114.804 272.65 114.963C273.031 115.123 273.353 115.357 273.617 115.667C273.836 115.922 274.009 116.205 274.137 116.515C274.264 116.825 274.328 117.178 274.328 117.574C274.328 118.053 274.208 118.523 273.966 118.986C273.724 119.449 273.326 119.776 272.77 119.967C273.235 120.154 273.564 120.419 273.757 120.763C273.951 121.107 274.048 121.633 274.048 122.339L274.048 123.016C274.048 123.476 274.066 123.788 274.103 123.952C274.157 124.212 274.285 124.404 274.486 124.527L274.486 124.779L272.168 124.779C272.104 124.556 272.059 124.376 272.031 124.239C271.977 123.957 271.947 123.668 271.943 123.371L271.929 122.435C271.92 121.792 271.802 121.364 271.577 121.15C271.351 120.935 270.929 120.828 270.309 120.828ZM271.587 118.996C272.006 118.805 272.216 118.427 272.216 117.862C272.216 117.251 272.013 116.841 271.608 116.631C271.38 116.513 271.038 116.453 270.582 116.453L268.135 116.453L268.135 119.16L270.521 119.16C270.995 119.16 271.35 119.106 271.587 118.996Z"/>
<path d="M280.761 123.727C280.743 123.75 280.697 123.818 280.624 123.932C280.551 124.046 280.465 124.146 280.364 124.233C280.059 124.506 279.764 124.693 279.479 124.793C279.194 124.893 278.861 124.944 278.478 124.944C277.375 124.944 276.632 124.547 276.249 123.754C276.035 123.317 275.928 122.672 275.928 121.82L275.928 117.328L277.924 117.328L277.924 121.82C277.924 122.243 277.974 122.562 278.074 122.777C278.252 123.155 278.601 123.344 279.12 123.344C279.786 123.344 280.241 123.075 280.487 122.537C280.615 122.246 280.679 121.861 280.679 121.382L280.679 117.328L282.654 117.328L282.654 124.779L280.761 124.779L280.761 123.727Z"/>
<path d="M288.041 118.771C287.38 118.771 286.927 119.051 286.681 119.612C286.553 119.908 286.489 120.286 286.489 120.746L286.489 124.779L284.548 124.779L284.548 117.342L286.428 117.342L286.428 118.429C286.679 118.046 286.916 117.77 287.139 117.602C287.54 117.301 288.048 117.151 288.663 117.151C289.433 117.151 290.063 117.352 290.553 117.756C291.043 118.159 291.288 118.828 291.288 119.762L291.288 124.779L289.292 124.779L289.292 120.247C289.292 119.855 289.24 119.555 289.135 119.345C288.944 118.962 288.579 118.771 288.041 118.771Z"/>
<path d="M293.127 114.703L295.075 114.703L295.075 124.779L293.127 124.779L293.127 114.703Z"/>
<path d="M303.19 118.272C303.819 119.06 304.133 119.992 304.133 121.068C304.133 122.161 303.819 123.097 303.19 123.874C302.561 124.651 301.606 125.039 300.325 125.039C299.045 125.039 298.09 124.651 297.461 123.874C296.832 123.097 296.518 122.161 296.518 121.068C296.518 119.992 296.832 119.06 297.461 118.272C298.09 117.483 299.045 117.089 300.325 117.089C301.606 117.089 302.561 117.483 303.19 118.272ZM300.319 118.737C299.749 118.737 299.31 118.938 299.003 119.341C298.695 119.745 298.541 120.32 298.541 121.068C298.541 121.815 298.695 122.391 299.003 122.797C299.31 123.203 299.749 123.405 300.319 123.405C300.888 123.405 301.326 123.203 301.631 122.797C301.936 122.391 302.089 121.815 302.089 121.068C302.089 120.32 301.936 119.745 301.631 119.341C301.326 118.938 300.888 118.737 300.319 118.737Z"/>
<path d="M311.741 118.272C312.37 119.06 312.685 119.992 312.685 121.068C312.685 122.161 312.37 123.097 311.741 123.874C311.112 124.651 310.158 125.039 308.877 125.039C307.597 125.039 306.642 124.651 306.013 123.874C305.384 123.097 305.07 122.161 305.07 121.068C305.07 119.992 305.384 119.06 306.013 118.272C306.642 117.483 307.597 117.089 308.877 117.089C310.158 117.089 311.112 117.483 311.741 118.272ZM308.87 118.737C308.301 118.737 307.862 118.938 307.554 119.341C307.247 119.745 307.093 120.32 307.093 121.068C307.093 121.815 307.247 122.391 307.554 122.797C307.862 123.203 308.301 123.405 308.87 123.405C309.44 123.405 309.877 123.203 310.183 122.797C310.488 122.391 310.641 121.815 310.641 121.068C310.641 120.32 310.488 119.745 310.183 119.341C309.877 118.938 309.44 118.737 308.87 118.737Z"/>
<path d="M320.32 118.128C320.922 118.771 321.223 119.714 321.223 120.958C321.223 122.271 320.928 123.271 320.338 123.959C319.747 124.647 318.987 124.991 318.058 124.991C317.465 124.991 316.973 124.843 316.581 124.547C316.367 124.383 316.157 124.144 315.952 123.829L315.952 127.712L314.025 127.712L314.025 117.328L315.891 117.328L315.891 118.429C316.1 118.105 316.324 117.85 316.561 117.663C316.994 117.331 317.509 117.164 318.106 117.164C318.976 117.164 319.714 117.486 320.32 118.128ZM319.213 121.054C319.213 120.48 319.082 119.972 318.82 119.529C318.558 119.087 318.133 118.866 317.545 118.866C316.839 118.866 316.353 119.201 316.089 119.871C315.952 120.227 315.884 120.678 315.884 121.225C315.884 122.091 316.114 122.699 316.574 123.05C316.848 123.255 317.171 123.358 317.545 123.358C318.087 123.358 318.501 123.148 318.786 122.729C319.071 122.309 319.213 121.751 319.213 121.054Z"/>
</g>
<g opacity="1">
<g opacity="1">
<g opacity="1">
<path d="M280.344 92.6875C272.913 92.8177 265.535 93.8574 258.562 96C251.116 98.2882 243.93 102.035 239.25 108.438C238.761 109.106 238.925 110.074 239.594 110.562C240.263 111.051 241.199 110.888 241.688 110.219C245.974 104.346 252.622 100.969 259.438 98.875C272.89 94.7422 288.004 94.8266 301.688 97.8125C309.635 99.5468 318.256 102.506 323.25 109.312C323.74 109.98 324.676 110.147 325.344 109.656C326.011 109.166 326.147 108.199 325.656 107.531C320.206 100.118 311.034 96.7716 302.344 94.875C295.25 93.3269 287.775 92.5573 280.344 92.6875Z" fill="#ffffff" stroke="none"/>
</g>
<g opacity="1">
<g opacity="1">
<path d="M324.5 100.969C323.683 101.109 323.141 101.871 323.281 102.688C323.6 104.548 323.554 104.33 323.594 104.562C323.594 104.562 323.8 105.817 323.906 106.438C324.012 107.058 324.325 108.901 324.219 108.281C323.9 106.421 324.244 108.296 324.562 110.156C324.702 110.973 325.465 111.515 326.281 111.375C327.098 111.235 327.64 110.442 327.5 109.625C327.184 107.78 327.228 108.016 327.188 107.781C327.188 107.781 326.769 105.286 326.875 105.906C326.769 105.286 326.456 103.442 326.562 104.062C326.881 105.923 326.537 104.048 326.219 102.188C326.079 101.371 325.316 100.829 324.5 100.969Z" fill="#ffffff" stroke="none"/>
</g>
<g opacity="1">
<path d="M319.375 105.938C318.601 105.643 317.732 106.007 317.438 106.781C317.143 107.556 317.538 108.424 318.312 108.719C320.066 109.385 319.841 109.322 320.062 109.406C320.062 109.406 321.257 109.839 321.844 110.062C322.431 110.286 324.181 110.973 323.594 110.75C321.832 110.08 323.582 110.737 325.344 111.406C326.118 111.701 326.987 111.306 327.281 110.531C327.576 109.757 327.181 108.888 326.406 108.594C324.65 107.926 324.877 108.021 324.656 107.938C324.656 107.938 322.319 107.027 322.906 107.25C322.319 107.027 320.538 106.371 321.125 106.594C322.887 107.263 321.137 106.607 319.375 105.938Z" fill="#ffffff" stroke="none"/>
</g>
</g>
</g>
<g opacity="1">
<g opacity="1">
<path d="M325.781 130.219C325.402 130.278 325.057 130.478 324.812 130.812C320.526 136.686 313.878 140.062 307.062 142.156C293.61 146.289 278.496 146.205 264.812 143.219C256.865 141.484 248.244 138.525 243.25 131.719C242.76 131.051 241.824 130.916 241.156 131.406C240.489 131.897 240.353 132.832 240.844 133.5C246.294 140.914 255.466 144.26 264.156 146.156C278.344 149.252 293.993 149.316 307.938 145.031C315.384 142.743 322.57 138.996 327.25 132.594C327.739 131.925 327.575 130.989 326.906 130.5C326.572 130.256 326.161 130.16 325.781 130.219Z" fill="#ffffff" stroke="none"/>
</g>
<g opacity="1">
<g opacity="1">
<path d="M240.219 129.688C239.402 129.827 238.86 130.59 239 131.406C239.637 135.127 239.306 133.265 239.625 135.125C239.731 135.745 240.044 137.62 239.938 137C239.619 135.14 239.963 136.983 240.281 138.844C240.421 139.66 241.183 140.202 242 140.062C242.817 139.923 243.359 139.16 243.219 138.344C242.897 136.468 242.946 136.699 242.906 136.469C242.906 136.469 242.488 134.005 242.594 134.625C242.488 134.005 242.175 132.13 242.281 132.75C242.6 134.61 242.256 132.767 241.938 130.906C241.798 130.09 241.035 129.548 240.219 129.688Z" fill="#ffffff" stroke="none"/>
</g>
<g opacity="1">
<path d="M241.156 129.625C240.382 129.331 239.513 129.726 239.219 130.5C238.924 131.274 239.288 132.143 240.062 132.438C241.832 133.11 241.625 133.01 241.844 133.094C241.844 133.094 244.181 134.004 243.594 133.781C244.181 134.004 245.962 134.661 245.375 134.438C243.613 133.768 245.363 134.455 247.125 135.125C247.899 135.419 248.768 135.024 249.062 134.25C249.357 133.476 248.962 132.607 248.188 132.312C246.445 131.65 246.66 131.741 246.438 131.656C246.438 131.656 245.243 131.192 244.656 130.969C244.069 130.746 242.319 130.089 242.906 130.312C244.668 130.982 242.918 130.295 241.156 129.625Z" fill="#ffffff" stroke="none"/>
</g>
</g>
</g>
</g>
</g>
<g opacity="1">
<path d="M455.812 48.25C455.004 48.0696 454.212 48.5665 454.031 49.375C453.851 50.1835 454.348 50.9758 455.156 51.1562C455.175 51.1642 455.176 51.1823 455.188 51.1875C455.246 51.2148 455.286 51.2526 455.344 51.2812C455.421 51.3192 455.518 51.3355 455.594 51.375C455.785 51.4746 456.001 51.614 456.188 51.7188C456.924 52.1317 457.639 52.5668 458.344 53.0312C460.506 54.4558 462.537 56.0552 464.438 57.8125C470.008 62.9618 474.387 69.5224 476.125 76.9688C476.817 79.9327 477.084 82.9917 476.969 86.0312C476.591 95.9596 471.805 104.767 464.812 111.625C461.119 115.248 456.899 118.142 452.75 121.188C452.082 121.678 451.947 122.613 452.438 123.281C452.928 123.949 453.863 124.084 454.531 123.594C457.723 121.25 460.998 119.033 464 116.438C469.562 111.628 474.368 105.849 477.188 99C480.96 89.8357 480.927 79.2344 477 70.125C474.615 64.5929 470.91 59.7017 466.5 55.625C464.18 53.48 461.657 51.5383 458.969 49.875C458.001 49.2759 456.93 48.5412 455.812 48.25Z" fill="#ababab" stroke="none"/>
</g>
<g opacity="1">
<g opacity="1">
<path d="M459.656 121.094C457.787 121.368 458.014 121.341 457.781 121.375C457.781 121.375 455.284 121.716 455.906 121.625C455.284 121.716 453.409 121.998 454.031 121.906C455.899 121.632 454.055 121.913 452.188 122.188C451.368 122.308 450.786 123.055 450.906 123.875C451.027 124.695 451.774 125.277 452.594 125.156C454.461 124.882 454.235 124.909 454.469 124.875C454.469 124.875 455.721 124.685 456.344 124.594C456.966 124.502 458.841 124.252 458.219 124.344C456.351 124.618 458.195 124.337 460.062 124.062C460.882 123.942 461.464 123.163 461.344 122.344C461.223 121.524 460.476 120.973 459.656 121.094Z" fill="#ababab" stroke="none"/>
</g>
<g opacity="1">
<path d="M454.531 115.156C454.177 115.305 453.875 115.585 453.719 115.969C453.009 117.708 453.12 117.5 453.031 117.719C453.031 117.719 452.55 118.887 452.312 119.469C452.075 120.05 451.357 121.8 451.594 121.219C452.305 119.474 451.586 121.224 450.875 122.969C450.562 123.736 450.952 124.594 451.719 124.906C452.486 125.219 453.343 124.861 453.656 124.094C454.368 122.349 454.286 122.562 454.375 122.344C454.375 122.344 455.331 120.012 455.094 120.594C455.331 120.012 456.05 118.262 455.812 118.844C455.101 120.589 455.789 118.87 456.5 117.125C456.813 116.358 456.455 115.469 455.688 115.156C455.304 115 454.885 115.007 454.531 115.156Z" fill="#ababab" stroke="none"/>
</g>
</g>
</g>
</g>
</svg>
