<?xml version="1.0" encoding="UTF-8" standalone="no"?>
<!DOCTYPE svg PUBLIC "-//W3C//DTD SVG 1.1//EN" "http://www.w3.org/Graphics/SVG/1.1/DTD/svg11.dtd">
<!-- Created with Vectornator (http://vectornator.io/) -->
<svg height="100%" stroke-miterlimit="10" style="fill-rule:nonzero;clip-rule:evenodd;stroke-linecap:round;stroke-linejoin:round;" version="1.1" viewBox="0 0 286 286" width="100%" xml:space="preserve" xmlns="http://www.w3.org/2000/svg" xmlns:xlink="http://www.w3.org/1999/xlink">
<defs/>
<g id="Untitled">
<g opacity="1">
<path d="M53.7327 285.972C53.8647 285.836 54.0186 285.692 54.0346 285.505C54.2685 282.726 55.2681 280.096 55.591 277.329C55.8239 275.332 56.1537 273.336 56.8455 271.427C57.5642 269.326 58.053 267.158 58.6818 265.032C59.6294 261.83 60.0062 258.451 61.6366 255.454C61.9285 254.916 62.0104 254.288 62.1884 253.7C62.9221 251.272 63.3459 248.744 64.6234 246.492C65.0173 245.796 65.1642 244.983 65.2052 244.17C65.2282 243.697 65.2592 243.217 65.5191 242.803C66.7146 240.902 67.0505 238.667 67.9121 236.627C69.1936 233.592 70.1502 230.416 70.9659 227.208C71.7226 224.237 72.7102 221.317 72.8612 218.224C72.9431 216.546 73.5859 216.066 75.2022 216.682C75.9579 216.97 76.6897 217.336 77.5083 217.261C78.8088 217.141 80.0483 217.435 81.2519 217.815C82.5343 218.219 83.8538 218.35 85.1573 218.368C86.7177 218.39 88.448 218.495 89.1847 216.557C89.2497 216.257 89.0858 215.893 89.4286 215.668C89.7195 215.136 89.7345 214.605 89.4206 214.076C88.8838 212.607 87.5294 212.251 86.2639 211.846C83.38 210.923 80.4742 210.069 77.5773 209.186C77.1455 209.01 76.7166 208.823 76.2858 208.647C74.3356 207.846 72.7832 206.049 70.4121 206.294C70.2832 206.308 70.1412 206.201 70.0383 206.108C68.6478 204.838 66.8595 204.248 65.2811 203.303C64.7314 202.974 64.0946 203.057 63.5698 202.706C61.7755 201.506 59.9523 200.35 58.3429 198.897C57.3633 198.052 55.7869 197.874 55.459 196.288C55.417 196.085 55.1232 195.986 54.8912 195.909C53.3209 195.389 52.0734 194.473 51.2677 192.993C51.0718 192.632 50.8408 192.31 50.477 192.035C49.0476 190.955 47.856 189.659 47.2363 187.927L47.2343 187.932C46.2367 186.963 45.338 185.94 45.1821 184.466C45.1651 184.305 44.9722 184.16 44.8182 184.056C44.1635 183.614 43.8656 182.93 43.5607 182.248L43.5617 182.25C43.2129 181.3 42.5911 180.497 42.1393 179.604C41.9164 179.159 41.9793 178.698 42.0433 178.227C42.1663 177.322 42.0893 176.407 41.6705 175.61C40.6449 173.651 40.43 171.484 40.0271 169.382C39.3494 165.856 39.3914 162.269 39.4253 158.691C39.2274 151.642 40.5929 144.726 41.2136 137.744C41.3936 136.947 41.5085 136.135 41.7984 135.365C41.8534 135.228 41.9014 135.09 41.9354 134.946C42.1983 134.294 42.5561 133.669 42.6081 132.952C42.888 129.08 44.8662 125.61 45.2371 121.743C45.359 120.472 45.7958 119.17 46.6105 118.084C47.1883 117.239 47.1573 116.185 47.5651 115.281C49.9692 109.952 52.1653 104.522 55.2791 99.5415C56.0738 98.272 56.1937 96.8956 56.1198 95.4542C56.0778 94.6365 55.7539 94.1117 54.9152 93.9607C53.8247 93.7638 53.017 93.1091 52.4002 92.2464C51.4976 90.9809 50.563 89.7324 49.9142 88.299C47.2143 82.3323 45.27 76.1198 44.2524 69.6613C43.3578 63.9796 42.917 58.2358 42.4761 52.4991C41.9593 45.7468 42.0933 39.0124 43.1039 32.3141C43.6177 28.9134 44.4284 25.5797 45.362 22.257C46.7355 17.37 48.4158 12.6318 50.8219 8.16358C52.0044 5.96545 54.1675 5.26972 56.3427 6.22435C61.1228 8.32352 65.0542 11.6322 68.9287 15.0149C71.1428 16.9481 72.9031 19.3062 74.7704 21.5593C79.1147 26.8032 82.3194 32.8588 86.6237 38.1388C88.6179 40.5858 90.0674 43.4537 92.1126 45.8737C93.505 47.5221 94.7045 49.3733 96.5848 50.5609C97.9063 51.3725 99.1568 52.2892 100.643 52.838C105.247 54.5413 109.772 53.5607 114.278 52.4721C117.397 51.7194 120.482 50.8168 123.654 50.318C128.045 49.6262 132.482 49.5263 136.92 49.4313C139.054 49.3853 141.152 49.7852 143.281 49.7422C147.039 49.6662 150.695 50.5069 154.357 51.1526C160.109 52.1682 165.705 53.9275 171.458 54.9641C174.271 55.7928 177.122 55.8798 180.016 55.5129C181.704 55.298 183.418 55.216 184.903 54.2514C187.043 52.861 189.123 51.4095 190.908 49.5433C192.411 47.9709 193.769 46.2736 195.246 44.6912C199.146 40.5098 202.303 35.7357 206.076 31.4504C208.347 28.8724 210.532 26.2045 212.879 23.6995C214.095 22.402 215.218 20.9635 216.659 19.889C218.297 18.6674 219.629 17.141 221.068 15.7206C223.723 13.1006 226.357 10.4707 229.593 8.53344C232.636 6.71016 235.796 6.83511 239.023 7.84871C239.833 8.10261 240.309 8.74835 240.718 9.47507C241.71 11.2444 242.587 13.0487 243.298 14.9629C245.079 19.758 246.265 24.7071 247.25 29.6991C247.926 33.1217 248.21 36.6134 248.477 40.1C249.059 47.661 248.807 55.202 247.749 62.6921C247.083 67.4042 245.886 72.0294 244.617 76.6206C242.838 83.065 239.99 88.9587 235.652 94.1107C234.61 95.3482 233.647 96.5957 232.194 97.3784C231.461 97.7742 231.204 98.469 231.158 99.2756C231.103 100.214 231.378 101.063 231.88 101.824C234.513 105.81 236.768 109.999 238.686 114.373C241.83 121.17 243.965 128.305 245.552 135.599C246.037 137.826 246.777 140.04 246.722 142.371C246.735 142.697 246.774 143.019 246.854 143.337C247.153 146.205 247.061 149.082 246.819 151.941C246.52 155.457 246.102 158.965 245.848 162.488C245.777 163.47 246.042 164.468 245.707 165.44C245.464 166.104 245.219 166.772 245.125 167.472C244.716 170.52 243.598 173.377 242.751 176.306C242.401 177.517 241.925 178.699 241.199 179.767C240.777 180.387 240.469 181.108 240.334 181.839C240.149 182.84 239.709 183.697 239.189 184.537L239.198 184.544C238.822 184.958 238.708 185.535 238.324 185.943L238.326 185.939C237.33 186.362 237.315 187.415 236.878 188.196C235.378 189.901 233.879 191.606 232.379 193.312C232.012 193.507 231.798 193.878 231.46 194.106C230.893 194.672 230.328 195.238 229.762 195.804C229.47 196.195 229.095 196.481 228.652 196.682C228.461 196.866 228.269 197.05 228.078 197.235C226.389 197.79 225.247 199.185 223.763 200.054C222.491 200.587 221.4 201.434 220.31 202.233C218.395 203.634 216.024 204.061 214.07 205.356C213.293 205.871 212.49 206.352 211.626 206.749C210.158 207.424 208.557 207.577 207.064 208.121C206.746 208.318 206.438 208.531 206.04 208.521C204.523 208.485 203.302 208.966 202.619 210.438C202.504 210.688 202.205 210.806 202.01 211.004C201.913 211.117 201.838 211.242 201.788 211.382C201.403 212.769 201.87 213.854 202.954 214.733C203.427 215.117 203.86 215.544 204.339 215.92C206.772 216.541 209.253 216.376 211.707 216.232C212.825 216.166 213.155 216.566 213.261 217.507C213.764 221.994 215.079 226.263 216.595 230.5C218.554 235.978 221.201 241.145 223.553 246.445C225.578 251.011 228.017 255.389 230.073 259.948C231.404 263.211 232.896 266.408 234.103 269.722C234.373 270.101 234.501 270.515 234.423 270.979C234.548 271.849 234.748 272.663 235.798 272.859C236.159 273.008 236.538 272.984 236.913 272.979C237.423 272.971 237.997 273.067 238.246 272.447C238.53 271.743 238.362 271.132 237.684 270.652C238.932 270.013 240.344 271.663 241.552 269.936C241.017 271.27 240.66 272.173 241.683 273.195C242.197 273.708 241.939 274.672 241.05 275.048C241.673 274.733 241.918 274.205 241.643 273.543C241.319 272.769 240.568 272.916 239.924 272.91C238.723 272.898 238.41 273.714 238.289 274.861C238.352 273.096 238.293 273.025 236.704 272.989C236.327 272.981 235.955 272.929 235.582 272.919C235.023 273.391 235.183 273.955 235.475 274.451C236.137 275.572 236.302 276.839 236.669 278.051C237.481 280.734 237.93 283.554 239.483 285.976C243.216 285.984 246.948 285.992 250.681 286C250.066 283.531 249.299 281.087 248.887 278.585C248.591 276.778 247.92 275.775 246.011 275.874C246.187 275.49 246.545 275.543 246.866 275.536C247.47 275.519 248.086 275.421 248.085 274.676C248.083 273.948 247.439 273.833 246.863 273.765C246.348 273.704 245.826 273.718 245.307 273.718C244.587 273.717 244.746 272.646 244.011 272.698C244.234 272.64 244.465 272.595 244.578 272.355C245.185 272.312 245.794 272.275 246.4 272.22C246.574 272.205 246.817 272.14 246.693 271.906C246.62 271.767 246.382 271.715 246.218 271.624C246.05 271.288 245.717 271.256 245.407 271.202C245.083 271.144 244.766 271.108 244.711 270.687C244.652 270.24 244.871 270.009 245.276 269.892C245.453 269.84 245.599 269.726 245.703 269.567C245.094 267.7 244.599 265.787 243.855 263.976C242.229 260.02 240.517 256.098 238.761 252.198C237.834 250.143 236.761 248.152 235.713 246.153C234.689 244.199 233.532 242.316 232.689 240.268C230.97 236.084 229.202 231.906 227.283 227.824C226.242 225.606 225.643 223.273 224.78 221.033C223.871 218.668 223.265 216.093 223.034 213.509C222.964 212.721 222.692 211.699 223.722 211.255C225.762 210.375 227.547 209.045 229.52 208.053C230.326 207.759 230.968 207.232 231.642 206.711C232.765 205.843 233.62 204.535 235.203 204.357L235.2 204.358C236.029 204.06 236.839 203.849 237.1 202.752C237.239 202.172 237.883 201.678 238.452 201.365C240.395 200.298 241.666 198.537 243.127 196.97C244.252 195.459 245.377 193.947 246.503 192.436C247.139 191.702 247.343 190.628 248.24 190.113C249.017 189.667 249.116 188.984 249.09 188.214L249.094 188.196C249.411 187.89 249.368 187.395 249.676 187.086L249.677 187.085C249.921 186.642 249.942 186.103 250.273 185.699L250.279 185.688C250.48 185.313 250.551 184.882 250.775 184.516C252.159 181.887 252.743 178.972 253.739 176.204C254.507 174.07 254.851 171.83 255.475 169.669C256.774 165.174 257.529 160.595 257.789 155.946C257.992 152.313 257.938 148.663 257.988 145.021C257.995 144.549 257.974 144.071 257.899 143.607C257.515 141.247 257.631 138.843 257.095 136.485C256.397 133.409 256.174 130.21 255.304 127.193C253.937 122.45 252.298 117.777 250.243 113.268C248.885 110.285 247.215 107.465 245.743 104.544C245.481 104.023 244.852 103.348 245.47 102.733C246.801 101.411 247.447 99.6395 248.568 98.1981C251.897 93.9168 253.655 88.8917 255.283 83.8477C256.228 80.9169 257.095 77.9361 257.648 74.8763C258.024 72.7991 259.056 70.7829 259.118 68.7187C259.224 65.1341 260.197 61.6945 260.405 58.1219C260.614 54.5503 260.798 50.9857 260.744 47.4161C260.66 41.8423 259.891 36.3385 258.849 30.8646C258.279 27.8758 257.578 24.918 256.528 22.0731C255.607 19.5781 254.426 17.173 253.348 14.742C252.021 11.7482 249.934 9.3851 248.114 6.79212C247.821 6.37529 247.448 5.95645 246.928 5.81351C245.428 5.40167 244.534 3.68935 242.756 3.88627C242.678 3.89527 242.578 3.8193 242.506 3.76132C240.628 2.25192 238.283 1.84008 236.065 1.49122C231.541 0.776497 227.02 0.673538 222.586 2.49082C218.25 4.26612 214.145 6.38129 210.582 9.41409C206.918 12.5339 203.715 16.1394 200.597 19.781C197.11 23.8524 193.771 28.0697 190.617 32.404C187.57 36.5924 183.75 39.8571 179.527 42.725C178.455 43.4527 177.173 43.7226 175.924 43.8385C172.601 44.1464 169.331 43.6026 166.1 42.8939C165.062 42.665 163.907 43.0198 163.032 42.595C160.378 41.3065 157.456 41.1406 154.674 40.6468C150.343 39.8781 145.965 39.1414 141.519 39.0864C140.347 39.0714 139.165 39.0914 137.989 39.0304C132.459 38.7465 126.933 38.9614 121.515 40.053C117.735 40.8147 114.001 41.0926 110.155 41.0686C104.949 41.0376 101.498 37.9158 98.3021 34.6162C97.0376 33.3107 95.9201 31.6483 94.7145 30.1629C91.1989 25.8316 87.6763 21.5113 83.9998 17.307C80.882 13.7414 77.4933 10.4867 73.8138 7.57482C71.2578 5.55061 68.5319 3.67235 65.4971 2.31389C62.1944 0.835474 58.8247-0.197119 55.1681 0.0317908C53.1799 0.156742 51.1867 0.406643 49.4794 1.5192C47.2892 2.94664 45.5429 4.76692 44.2624 7.12699C41.0957 12.9637 38.1429 18.8944 36.4345 25.3278C34.4353 32.8548 33.0229 40.5218 32.617 48.3028C32.2462 55.4209 32.2612 62.5601 33.3198 69.6503C33.7936 72.8201 34.0295 76.0338 34.9011 79.1286C36.1117 83.4289 37.1263 87.8002 38.7826 91.9535C39.8612 94.6595 40.6449 97.6193 42.821 99.7015C43.9636 100.795 43.7676 101.604 43.1079 102.68C40.9627 106.177 39.3694 109.948 37.9059 113.756C37.0673 115.938 36.3825 118.202 35.6288 120.422C33.3827 127.039 32.0153 133.843 30.7948 140.693C29.8651 145.914 29.5842 151.187 29.4293 156.472C29.2104 163.952 29.7182 171.35 31.9193 178.558C32.666 180.462 33.2828 182.416 34.1814 184.259C34.1494 184.675 34.4263 184.912 34.6992 185.152C35.165 185.46 35.0111 185.984 35.118 186.41C35.282 187.06 35.5109 187.638 36.1606 187.947L36.1596 187.947C37.3132 188.405 37.1612 189.611 37.6051 190.475L37.6041 190.471C37.9289 190.988 38.6007 191.164 38.8336 191.793C39.5383 193.695 41.3396 194.785 42.3532 196.475C42.6511 196.973 42.903 197.699 43.5127 197.85C44.7712 198.161 44.8272 199.786 46.0817 200.06C46.2307 200.092 46.2337 200.381 46.2427 200.572C46.2936 201.579 46.7615 202.134 47.835 202.128C48.3158 202.125 48.7767 202.339 49.0406 202.761C50.0312 204.345 51.6325 205.345 53.1129 206.221C54.3345 206.945 55.632 207.535 56.7815 208.436C57.2993 208.841 58.11 208.873 58.5698 209.474C59.0886 210.153 59.8193 210.515 60.63 210.575C61.8555 210.665 62.5522 211.727 63.6278 212.074C63.9137 212.166 64.0007 212.524 63.9407 212.805C63.6568 214.145 64.0156 215.524 63.6818 216.858L63.6838 216.853C63.6028 216.966 63.5728 217.096 63.5338 217.23C62.8441 219.625 62.9751 222.196 61.9635 224.521C61.7046 226.021 60.696 227.241 60.3741 228.71C59.7603 231.502 58.7847 234.197 57.936 236.911C57.1793 239.332 56.2507 241.728 55.3821 244.131C54.9212 245.404 54.7983 246.77 54.2545 247.991C53.2909 250.158 52.3073 252.3 51.9674 254.68C51.8355 255.607 51.7825 256.628 51.3496 257.415C49.3774 261.008 48.7737 265.028 47.7541 268.896C46.8724 272.243 46.0587 275.626 45.359 279.018C44.8882 281.296 44.2045 283.602 44.4983 285.996C47.5761 285.989 50.6539 285.98 53.7327 285.972L50.8081 285.898L239.704 285.889L245.194 283.365L216.944 214.96L219.643 207.293L244.271 186.275L248.667 169.341L251.345 149.685L243.354 108.755L234.737 101.232L247.007 87.8176L252.201 73.7623L255.068 45.3429L248.472 16.959L244.35 8.55297L230.49 4.72049L215.608 14.9906L191.421 41.402L180.301 49.7936L163.118 48.7736L150.042 47.234L121.185 47.1005L103.741 47.1005L90.7706 33.235L82.3136 23.7998L73.9296 13.1219L64.7658 7.07148L52.6175 3.71566L46.3274 12.0582L39.0412 39.2099L41.744 71.2006L47.2596 94.0673L46.8267 106.41L39.1463 131.367L34.6731 155.056L39.5632 182.455L46.5843 191.887L59.4668 201.977L71.7744 209.906L67.3898 228.279" fill="#ffffff" fill-rule="nonzero" opacity="1" stroke="none"/>
</g>
<g opacity="1">
<path d="M53.7327 285.972C50.6539 285.98 47.5761 285.989 44.4983 285.996C44.2045 283.602 44.8882 281.296 45.359 279.018C46.0587 275.626 46.8724 272.243 47.7541 268.896C48.7737 265.028 49.3774 261.008 51.3496 257.415C51.7825 256.628 51.8355 255.607 51.9674 254.68C52.3073 252.3 53.2909 250.158 54.2545 247.991C54.7983 246.77 54.9212 245.404 55.3821 244.131C56.2507 241.728 57.1793 239.332 57.936 236.911C58.7847 234.197 59.7603 231.502 60.3741 228.71C60.696 227.241 61.7046 226.021 61.9635 224.521C62.9751 222.196 62.8441 219.625 63.5338 217.23C63.5728 217.096 63.6028 216.966 63.6838 216.853L63.6818 216.858C64.0156 215.524 63.6568 214.145 63.9407 212.805C64.0007 212.524 63.9137 212.166 63.6278 212.074C62.5522 211.727 61.8555 210.665 60.63 210.575C59.8193 210.515 59.0886 210.153 58.5698 209.474C58.11 208.873 57.2993 208.841 56.7815 208.436C55.632 207.535 54.3345 206.945 53.1129 206.221C51.6325 205.345 50.0312 204.345 49.0406 202.761C48.7767 202.339 48.3158 202.125 47.835 202.128C46.7615 202.134 46.2936 201.579 46.2427 200.572C46.2337 200.381 46.2307 200.092 46.0817 200.06C44.8272 199.786 44.7712 198.161 43.5127 197.85C42.903 197.699 42.6511 196.973 42.3532 196.475C41.3396 194.785 39.5383 193.695 38.8336 191.793C38.6007 191.164 37.9289 190.988 37.6041 190.471L37.6051 190.475C37.1612 189.611 37.3132 188.405 36.1596 187.947L36.1606 187.947C35.5109 187.638 35.282 187.06 35.118 186.41C35.0111 185.984 35.165 185.46 34.6992 185.152C34.4263 184.912 34.1494 184.675 34.1814 184.259C33.2828 182.416 32.666 180.462 31.9193 178.558C29.7182 171.35 29.2104 163.952 29.4293 156.472C29.5842 151.187 29.8651 145.914 30.7948 140.693C32.0153 133.843 33.3827 127.039 35.6288 120.422C36.3825 118.202 37.0673 115.938 37.9059 113.756C39.3694 109.948 40.9627 106.177 43.1079 102.68C43.7676 101.604 43.9636 100.795 42.821 99.7015C40.6449 97.6193 39.8612 94.6595 38.7826 91.9535C37.1263 87.8002 36.1117 83.4289 34.9011 79.1286C34.0295 76.0338 33.7936 72.8201 33.3198 69.6503C32.2612 62.5601 32.2462 55.4209 32.617 48.3028C33.0229 40.5218 34.4353 32.8548 36.4345 25.3278C38.1429 18.8944 41.0957 12.9637 44.2624 7.12699C45.5429 4.76692 47.2892 2.94664 49.4794 1.5192C51.1867 0.406643 53.1799 0.156742 55.1681 0.0317908C58.8247-0.197119 62.1944 0.835474 65.4971 2.31389C68.5319 3.67235 71.2578 5.55061 73.8138 7.57482C77.4933 10.4867 80.882 13.7414 83.9998 17.307C87.6763 21.5113 91.1989 25.8316 94.7145 30.1629C95.9201 31.6483 97.0376 33.3107 98.3021 34.6162C101.498 37.9158 104.949 41.0376 110.155 41.0686C114.001 41.0926 117.735 40.8147 121.515 40.053C126.933 38.9614 132.459 38.7465 137.989 39.0304C139.165 39.0914 140.347 39.0714 141.519 39.0864C145.965 39.1414 150.343 39.8781 154.674 40.6468C157.456 41.1406 160.378 41.3065 163.032 42.595C163.907 43.0198 165.062 42.665 166.1 42.8939C169.331 43.6026 172.601 44.1464 175.924 43.8385C177.173 43.7226 178.455 43.4527 179.527 42.725C183.75 39.8571 187.57 36.5924 190.617 32.404C193.771 28.0697 197.11 23.8524 200.597 19.781C203.715 16.1394 206.918 12.5339 210.582 9.41409C214.145 6.38129 218.25 4.26612 222.586 2.49082C227.02 0.673538 231.541 0.776497 236.065 1.49122C238.283 1.84008 240.628 2.25192 242.506 3.76132C242.578 3.8193 242.678 3.89527 242.756 3.88627C244.534 3.68935 245.428 5.40167 246.928 5.81351C247.448 5.95645 247.821 6.37529 248.114 6.79212C249.934 9.3851 252.021 11.7482 253.348 14.742C254.426 17.173 255.607 19.5781 256.528 22.0731C257.578 24.918 258.279 27.8758 258.849 30.8646C259.891 36.3385 260.66 41.8423 260.744 47.4161C260.798 50.9857 260.614 54.5503 260.405 58.1219C260.197 61.6945 259.224 65.1341 259.118 68.7187C259.056 70.7829 258.024 72.7991 257.648 74.8763C257.095 77.9361 256.228 80.9169 255.283 83.8477C253.655 88.8917 251.897 93.9168 248.568 98.1981C247.447 99.6395 246.801 101.411 245.47 102.733C244.852 103.348 245.481 104.023 245.743 104.544C247.215 107.465 248.885 110.285 250.243 113.268C252.298 117.777 253.937 122.45 255.304 127.193C256.174 130.21 256.397 133.409 257.095 136.485C257.631 138.843 257.515 141.247 257.899 143.607C257.974 144.071 257.995 144.549 257.988 145.021C257.938 148.663 257.992 152.313 257.789 155.946C257.529 160.595 256.774 165.174 255.475 169.669C254.851 171.83 254.507 174.07 253.739 176.204C252.743 178.972 252.159 181.887 250.775 184.516C250.551 184.882 250.48 185.313 250.279 185.688L250.273 185.699C249.942 186.103 249.921 186.642 249.677 187.085L249.676 187.086C249.368 187.395 249.411 187.89 249.094 188.196L249.09 188.214C249.116 188.984 249.017 189.667 248.24 190.113C247.343 190.628 247.139 191.702 246.503 192.436C245.377 193.947 244.252 195.459 243.127 196.97C241.666 198.537 240.395 200.298 238.452 201.365C237.883 201.678 237.239 202.172 237.1 202.752C236.839 203.849 236.029 204.06 235.2 204.358L235.203 204.357C233.62 204.535 232.765 205.843 231.642 206.711C230.968 207.232 230.326 207.759 229.52 208.053C227.547 209.045 225.762 210.375 223.722 211.255C222.692 211.699 222.964 212.721 223.034 213.509C223.265 216.093 223.871 218.668 224.78 221.033C225.643 223.273 226.242 225.606 227.283 227.824C229.202 231.906 230.97 236.084 232.689 240.268C233.532 242.316 234.689 244.199 235.713 246.153C236.761 248.152 237.834 250.143 238.761 252.198C240.517 256.098 242.229 260.02 243.855 263.976C244.599 265.787 245.094 267.7 245.703 269.567C245.599 269.726 245.453 269.84 245.276 269.892C244.871 270.009 244.652 270.24 244.711 270.687C244.766 271.108 245.083 271.144 245.407 271.202C245.717 271.256 246.05 271.288 246.218 271.624C246.382 271.715 246.62 271.767 246.693 271.906C246.817 272.14 246.574 272.205 246.4 272.22C245.794 272.275 245.185 272.312 244.578 272.355C244.465 272.595 244.234 272.64 244.011 272.698C244.746 272.646 244.587 273.717 245.307 273.718C245.826 273.718 246.348 273.704 246.863 273.765C247.439 273.833 248.083 273.948 248.085 274.676C248.086 275.421 247.47 275.519 246.866 275.536C246.545 275.543 246.187 275.49 246.011 275.874C247.92 275.775 248.591 276.778 248.887 278.585C249.299 281.087 250.066 283.531 250.681 286C246.948 285.992 243.216 285.984 239.483 285.976C237.93 283.554 237.481 280.734 236.669 278.051C236.302 276.839 236.137 275.572 235.475 274.451C235.183 273.955 235.023 273.391 235.582 272.919C235.955 272.929 236.327 272.981 236.704 272.989C238.293 273.025 238.352 273.096 238.289 274.861C238.41 273.714 238.723 272.898 239.924 272.91C240.568 272.916 241.319 272.769 241.643 273.543C241.918 274.205 241.673 274.733 241.05 275.048C241.939 274.672 242.197 273.708 241.683 273.195C240.66 272.173 241.017 271.27 241.552 269.936C240.344 271.663 238.932 270.013 237.684 270.652C238.362 271.132 238.53 271.743 238.246 272.447C237.997 273.067 237.423 272.971 236.913 272.979C236.538 272.984 236.159 273.008 235.798 272.859C234.748 272.663 234.548 271.849 234.423 270.979C234.501 270.515 234.373 270.101 234.103 269.722C232.896 266.408 231.404 263.211 230.073 259.948C228.017 255.389 225.578 251.011 223.553 246.445C221.201 241.145 218.554 235.978 216.595 230.5C215.079 226.263 213.764 221.994 213.261 217.507C213.155 216.566 212.825 216.166 211.707 216.232C209.253 216.376 206.772 216.541 204.339 215.92C203.86 215.544 203.427 215.117 202.954 214.733C201.87 213.854 201.403 212.769 201.788 211.382C201.838 211.242 201.913 211.117 202.01 211.004C202.205 210.806 202.504 210.688 202.619 210.438C203.302 208.966 204.523 208.485 206.04 208.521C206.438 208.531 206.746 208.318 207.064 208.121C208.557 207.577 210.158 207.424 211.626 206.749C212.49 206.352 213.293 205.871 214.07 205.356C216.024 204.061 218.395 203.634 220.31 202.233C221.4 201.434 222.491 200.587 223.763 200.054C225.247 199.185 226.389 197.79 228.078 197.235C228.269 197.05 228.461 196.866 228.652 196.682C229.095 196.481 229.47 196.195 229.762 195.804C230.328 195.238 230.893 194.672 231.46 194.106C231.798 193.878 232.012 193.507 232.379 193.312C233.879 191.606 235.378 189.901 236.878 188.196C237.315 187.415 237.33 186.362 238.326 185.939L238.324 185.943C238.708 185.535 238.822 184.958 239.198 184.544L239.189 184.537C239.709 183.697 240.149 182.84 240.334 181.839C240.469 181.108 240.777 180.387 241.199 179.767C241.925 178.699 242.401 177.517 242.751 176.306C243.598 173.377 244.716 170.52 245.125 167.472C245.219 166.772 245.464 166.104 245.707 165.44C246.042 164.468 245.777 163.47 245.848 162.488C246.102 158.965 246.52 155.457 246.819 151.941C247.061 149.082 247.153 146.205 246.854 143.337C246.774 143.019 246.735 142.697 246.722 142.371C246.777 140.04 246.037 137.826 245.552 135.599C243.965 128.305 241.83 121.17 238.686 114.373C236.768 109.999 234.513 105.81 231.88 101.824C231.378 101.063 231.103 100.214 231.158 99.2756C231.204 98.469 231.461 97.7742 232.194 97.3784C233.647 96.5957 234.61 95.3482 235.652 94.1107C239.99 88.9587 242.838 83.065 244.617 76.6206C245.886 72.0294 247.083 67.4042 247.749 62.6921C248.807 55.202 249.059 47.661 248.477 40.1C248.21 36.6134 247.926 33.1217 247.25 29.6991C246.265 24.7071 245.079 19.758 243.298 14.9629C242.587 13.0487 241.71 11.2444 240.718 9.47507C240.309 8.74835 239.833 8.10261 239.023 7.84871C235.796 6.83511 232.636 6.71016 229.593 8.53344C226.357 10.4707 223.723 13.1006 221.068 15.7206C219.629 17.141 218.297 18.6674 216.659 19.889C215.218 20.9635 214.095 22.402 212.879 23.6995C210.532 26.2045 208.347 28.8724 206.076 31.4504C202.303 35.7357 199.146 40.5098 195.246 44.6912C193.769 46.2736 192.411 47.9709 190.908 49.5433C189.123 51.4095 187.043 52.861 184.903 54.2514C183.418 55.216 181.704 55.298 180.016 55.5129C177.122 55.8798 174.271 55.7928 171.458 54.9641C165.705 53.9275 160.109 52.1682 154.357 51.1526C150.695 50.5069 147.039 49.6662 143.281 49.7422C141.152 49.7852 139.054 49.3853 136.92 49.4313C132.482 49.5263 128.045 49.6262 123.654 50.318C120.482 50.8168 117.397 51.7194 114.278 52.4721C109.772 53.5607 105.247 54.5413 100.643 52.838C99.1568 52.2892 97.9063 51.3725 96.5848 50.5609C94.7045 49.3733 93.505 47.5221 92.1126 45.8737C90.0674 43.4537 88.6179 40.5858 86.6237 38.1388C82.3194 32.8588 79.1147 26.8032 74.7704 21.5593C72.9031 19.3062 71.1428 16.9481 68.9287 15.0149C65.0542 11.6322 61.1228 8.32352 56.3427 6.22435C54.1675 5.26972 52.0044 5.96545 50.8219 8.16358C48.4158 12.6318 46.7355 17.37 45.362 22.257C44.4284 25.5797 43.6177 28.9134 43.1039 32.3141C42.0933 39.0124 41.9593 45.7468 42.4761 52.4991C42.917 58.2358 43.3578 63.9796 44.2524 69.6613C45.27 76.1198 47.2143 82.3323 49.9142 88.299C50.563 89.7324 51.4976 90.9809 52.4002 92.2464C53.017 93.1091 53.8247 93.7638 54.9152 93.9607C55.7539 94.1117 56.0778 94.6365 56.1198 95.4542C56.1937 96.8956 56.0738 98.272 55.2791 99.5415C52.1653 104.522 49.9692 109.952 47.5651 115.281C47.1573 116.185 47.1883 117.239 46.6105 118.084C45.7958 119.17 45.359 120.472 45.2371 121.743C44.8662 125.61 42.888 129.08 42.6081 132.952C42.5561 133.669 42.1983 134.294 41.9354 134.946C41.9014 135.09 41.8534 135.228 41.7984 135.365C41.5085 136.135 41.3936 136.947 41.2136 137.744C40.5929 144.726 39.2274 151.642 39.4253 158.691C39.3914 162.269 39.3494 165.856 40.0271 169.382C40.43 171.484 40.6449 173.651 41.6705 175.61C42.0893 176.407 42.1663 177.322 42.0433 178.227C41.9793 178.698 41.9164 179.159 42.1393 179.604C42.5911 180.497 43.2129 181.3 43.5617 182.25L43.5607 182.248C43.8656 182.93 44.1635 183.614 44.8182 184.056C44.9722 184.16 45.1651 184.305 45.1821 184.466C45.338 185.94 46.2367 186.963 47.2343 187.932L47.2363 187.927C47.856 189.659 49.0476 190.955 50.477 192.035C50.8408 192.31 51.0718 192.632 51.2677 192.993C52.0734 194.473 53.3209 195.389 54.8912 195.909C55.1232 195.986 55.417 196.085 55.459 196.288C55.7869 197.874 57.3633 198.052 58.3429 198.897C59.9523 200.35 61.7755 201.506 63.5698 202.706C64.0946 203.057 64.7314 202.974 65.2811 203.303C66.8595 204.248 68.6478 204.838 70.0383 206.108C70.1412 206.201 70.2832 206.308 70.4121 206.294C72.7832 206.049 74.3356 207.846 76.2858 208.647C76.7166 208.823 77.1455 209.01 77.5773 209.186C80.4742 210.069 83.38 210.923 86.2639 211.846C87.5294 212.251 88.8838 212.607 89.4206 214.076C89.7345 214.605 89.7195 215.136 89.4286 215.668C89.0858 215.893 89.2497 216.257 89.1847 216.557C88.448 218.495 86.7177 218.39 85.1573 218.368C83.8538 218.35 82.5343 218.219 81.2519 217.815C80.0483 217.435 78.8088 217.141 77.5083 217.261C76.6897 217.336 75.9579 216.97 75.2022 216.682C73.5859 216.066 72.9431 216.546 72.8612 218.224C72.7102 221.317 71.7226 224.237 70.9659 227.208C70.1502 230.416 69.1936 233.592 67.9121 236.627C67.0505 238.667 66.7146 240.902 65.5191 242.803C65.2592 243.217 65.2282 243.697 65.2052 244.17C65.1642 244.983 65.0173 245.796 64.6234 246.492C63.3459 248.744 62.9221 251.272 62.1884 253.7C62.0104 254.288 61.9285 254.916 61.6366 255.454C60.0062 258.451 59.6294 261.83 58.6818 265.032C58.053 267.158 57.5642 269.326 56.8455 271.427C56.1537 273.336 55.8239 275.332 55.591 277.329C55.2681 280.096 54.2685 282.726 54.0346 285.505C54.0186 285.692 53.8647 285.836 53.7327 285.972" fill="#070405" fill-rule="nonzero" opacity="1" stroke="none"/>
<path d="M37.6043 190.471C38.0831 190.676 38.6089 190.869 38.8258 191.37C39.7964 193.616 41.8296 195.073 43.0521 197.118C43.5149 197.893 44.4546 197.899 44.9804 198.668C45.5821 199.548 46.5997 200.14 46.7307 201.349C46.7427 201.461 46.8956 201.62 47.0096 201.647C49.6325 202.255 50.854 204.765 52.9852 206.036C53.0662 206.085 53.1341 206.172 53.2191 206.19C55.7221 206.719 57.4424 208.552 59.4826 209.866C60.5542 210.558 61.9027 210.796 63.0952 211.355C64.0938 211.822 64.4807 212.377 64.1348 213.277C63.681 214.458 64.2568 215.724 63.682 216.859C63.648 216.107 63.611 215.355 63.58 214.603C63.552 213.9 64.0508 212.926 63.57 212.557C62.7124 211.9 61.8707 211.162 60.7341 210.82C58.595 210.176 56.7107 209.014 55.1803 207.34C55.0894 207.24 54.9964 207.056 54.9044 207.057C52.5874 207.069 51.5298 204.903 49.7105 204.064C49.6275 204.026 49.5576 203.953 49.4886 203.891C47.2345 201.867 47.1815 202.031 44.5935 203.635C39.5095 206.789 34.8394 210.485 30.1302 214.14C30.0722 214.185 29.9573 214.155 29.8633 214.161C29.6274 213.909 29.8283 213.722 29.9763 213.56C32.4683 210.846 35.3861 208.647 38.332 206.451C40.733 204.66 43.1941 202.966 45.6511 201.261C46.1859 200.89 46.1579 200.571 45.7201 200.15C44.5025 198.981 43.2161 197.869 42.1165 196.597C40.4581 194.677 38.8738 192.685 37.6043 190.471" fill="#231916" fill-rule="nonzero" opacity="1" stroke="none"/>
<path d="M34.6991 185.152C35.5118 185.215 35.4228 185.96 35.5368 186.428C35.6728 186.982 35.8707 187.474 36.1606 187.947C35.015 187.924 33.9194 188.205 32.8439 188.543C29.2263 189.68 25.5487 190.671 22.0271 192.054C19.5601 193.024 17.0371 193.896 14.654 195.079C14.0103 195.398 13.4295 195.309 12.5499 195.252C13.4525 194.086 14.6131 193.841 15.5687 193.367C19.4781 191.427 23.4846 189.693 27.6429 188.349C29.7661 187.662 31.8423 186.8 34.0684 186.453C34.8861 186.325 34.7991 185.736 34.6991 185.152" fill="#231916" fill-rule="nonzero" opacity="1" stroke="none"/>
<path d="M246.502 192.436C246.673 191.756 247.002 191.129 247.481 190.651C248.197 189.941 248.793 189.184 249.089 188.213C249.642 188.931 250.539 189.123 251.287 189.291C256.004 190.354 260.549 191.916 265.015 193.739C265.186 193.81 265.375 193.842 265.556 193.892C266.003 194.125 266.423 194.417 266.9 194.58C267.218 194.687 267.613 194.779 267.535 195.165C267.436 195.649 266.994 195.54 266.629 195.476C266.45 195.445 266.265 195.432 266.114 195.31C262.842 194.293 259.621 193.105 256.351 192.11C254.153 191.441 251.884 190.959 249.678 190.282C248.624 189.958 247.985 190.492 247.437 191.292C247.159 191.697 247.141 192.325 246.502 192.436" fill="#231916" fill-rule="nonzero" opacity="1" stroke="none"/>
<path d="M235.2 204.358C237.688 201.73 240.524 199.476 243.127 196.971C242.264 198.814 240.577 199.889 239.17 201.225C239.103 201.288 238.994 201.301 238.921 201.358C236.802 203.006 236.616 203.1 238.979 204.563C241.052 205.846 243.026 207.293 245.208 208.401C245.291 208.443 245.382 208.495 245.435 208.566C245.782 209.023 246.753 209.342 246.354 209.94C245.944 210.555 245.387 209.713 244.968 209.481C242.345 208.031 239.748 206.532 237.183 204.98C236.546 204.595 235.906 204.423 235.2 204.358" fill="#231916" fill-rule="nonzero" opacity="1" stroke="none"/>
<path d="M266.114 195.31C266.497 195.194 266.937 195.451 267.345 195.103C266.857 194.51 265.862 194.684 265.555 193.893C268.278 194.476 270.571 196.057 273.079 197.14C273.353 197.258 273.524 197.506 273.419 197.824C273.349 198.032 273.173 198.051 272.966 197.971C270.684 197.079 268.276 196.512 266.114 195.31" fill="#231916" fill-rule="nonzero" opacity="1" stroke="none"/>
<path d="M63.6833 216.853C63.1135 219.41 63.3904 222.157 61.963 224.522C62.6747 221.997 62.4808 219.268 63.6833 216.853" fill="#070405" fill-rule="nonzero" opacity="1" stroke="none"/>
<path d="M229.521 208.053C230.811 206.99 232.121 205.949 233.384 204.856C233.935 204.38 234.519 204.24 235.203 204.357C233.727 205.057 232.58 206.188 231.364 207.236C230.842 207.687 230.304 208.166 229.521 208.053" fill="#231916" fill-rule="nonzero" opacity="1" stroke="none"/>
<path d="M31.9195 178.558C32.9761 180.339 33.5839 182.297 34.1816 184.259C33.0791 182.497 32.2574 180.623 31.9195 178.558" fill="#070405" fill-rule="nonzero" opacity="1" stroke="none"/>
<path d="M36.16 187.947C37.4995 188.3 37.5135 189.409 37.6055 190.475C36.9107 189.754 36.9117 188.634 36.16 187.947" fill="#070405" fill-rule="nonzero" opacity="1" stroke="none"/>
<path d="M250.279 185.688C250.22 185.202 250.221 184.742 250.775 184.516C250.774 184.976 250.826 185.459 250.279 185.688" fill="#070405" fill-rule="nonzero" opacity="1" stroke="none"/>
<path d="M249.094 188.196C249.039 187.695 249.106 187.258 249.677 187.086C249.74 187.591 249.599 187.989 249.094 188.196" fill="#070405" fill-rule="nonzero" opacity="1" stroke="none"/>
<path d="M249.678 187.085C249.632 186.518 249.71 186.003 250.274 185.698C250.254 186.237 250.153 186.741 249.678 187.085" fill="#070405" fill-rule="nonzero" opacity="1" stroke="none"/>
<path d="M42.1333 179.995C41.6595 179.322 41.8194 178.513 41.7784 177.791C41.6675 175.844 40.5759 174.226 40.1691 172.352C39.1875 167.841 38.9126 163.33 39.0315 158.758C39.8872 157.256 41.1537 156.165 42.4442 155.034C44.9052 152.875 47.6481 151.127 50.2941 149.236C51.1408 148.631 52.0424 148.12 52.977 147.655C54.5414 146.877 55.0712 145.89 54.8313 144.384C54.6314 143.129 53.4888 142.137 51.9514 141.882C49.3595 141.45 46.7725 141.75 44.1905 141.982C43.2978 142.062 42.4022 142.133 41.5096 142.223C40.9328 142.281 40.396 142.107 40.5569 141.372C40.8458 140.049 40.6599 138.66 41.1397 137.368C41.4016 136.675 41.2916 135.905 41.5855 135.218L41.5845 135.223C41.9014 134.515 42.3922 133.936 43.0439 133.537C45.2491 132.186 47.4592 130.842 50.0912 130.447C50.9268 130.322 51.7895 130.257 52.5702 129.907C53.4728 129.502 54.4265 129.096 54.4554 127.873C54.4794 126.854 53.6428 125.698 52.5542 125.298C51.5336 124.924 50.456 124.764 49.3884 124.579C48.2749 124.387 47.1643 124.155 46.0438 124.026C44.8822 123.893 44.6253 123.227 44.8722 122.269C45.2561 120.778 45.5759 119.258 46.3946 117.916C47.6191 113.47 49.8443 109.447 51.6975 105.262C52.6312 103.154 53.9387 101.282 55.0062 99.2646C55.4521 98.422 55.7369 97.5763 55.8099 96.5947C55.9129 95.2032 55.7809 94.2746 54.0676 94.1027C52.998 93.9947 52.3863 92.9561 51.7755 92.1285C49.2785 88.7418 47.881 84.8513 46.6405 80.8859C45.446 77.0664 44.3524 73.2279 43.7797 69.2525C43.0629 64.2634 42.6461 59.2444 42.1693 54.2314C41.7704 50.0431 41.7445 45.8367 41.8144 41.6364C41.8884 37.1501 42.5232 32.7149 43.4398 28.3256C44.5274 23.1177 46.0108 18.0157 48.003 13.0866C48.8597 10.9655 49.7463 8.80732 51.1787 6.96204C52.3783 5.41865 54.5794 4.97783 56.3287 5.78651C60.0732 7.51982 63.3669 9.8749 66.5587 12.4869C72.0385 16.9721 76.2349 22.4959 80.1053 28.3196C82.4744 31.8842 85.0194 35.3189 87.5274 38.7845C89.8195 41.9512 91.8977 45.2719 94.5516 48.1698C95.1904 48.8675 95.8141 49.5702 96.5488 50.167C98.632 51.9723 101.006 53.1428 103.775 53.4117C104.656 53.4977 104.814 54.0855 104.878 54.7892C104.97 55.7908 104.609 56.7544 104.63 57.748C104.814 66.2866 106.005 74.5874 110.363 82.1484C110.9 83.079 111.571 83.8297 112.551 84.2875C114.209 85.0622 115.392 84.5095 115.607 82.6752C115.904 80.1462 116.355 77.6392 116.578 75.0992C116.986 70.445 118.593 66.1007 120.111 61.7314C120.653 60.1691 121.374 58.6876 121.974 57.1522C122.128 56.7564 122.277 56.3556 122.499 55.9917C122.815 55.4739 123.103 54.7692 123.817 54.8851C124.528 55.0011 124.427 55.7538 124.477 56.2936C124.891 60.7838 125.854 65.1821 127.384 69.3914C128.62 72.7911 129.756 76.2657 131.608 79.4255C133.14 82.0404 134.943 82.1944 136.727 79.7163C139.02 76.5306 140.908 73.092 142.796 69.6563C144.092 67.2972 145.32 64.9032 146.615 62.5441C147.549 60.8478 148.157 58.9995 148.961 57.2402C149.216 56.6834 149.399 55.9737 150.141 55.9967C151.023 56.0227 150.983 56.8474 151.169 57.4651C152.562 62.1033 152.292 66.8604 152.303 71.6155C152.313 75.7459 151.738 79.8033 151.212 83.8727C151.055 85.0782 151.573 85.8729 152.441 86.5407C153.278 87.1844 154.067 86.7246 154.823 86.3447C156.892 85.3041 158.088 83.3769 159.457 81.6486C163.164 76.9674 165.619 71.6255 167.586 66.0307C168.708 62.843 169.003 59.4983 169.554 56.2016C169.856 54.3983 169.819 54.3923 171.701 54.6902C175.19 55.5469 178.709 55.5589 182.207 54.8681C184.939 54.3294 187.031 52.5251 189.03 50.7628C192.752 47.4811 195.794 43.5616 198.885 39.6981C201.778 36.0836 204.753 32.532 207.645 28.9204C209.111 27.0891 210.767 25.4288 212.321 23.7114C213.8 22.0801 215.226 20.2868 217.167 19.0423C218.356 18.2796 219.306 17.102 220.271 16.0824C223.158 13.0307 226.104 10.0808 229.761 7.98364C232.875 6.19935 236.184 6.35428 239.457 7.5758C241.097 8.18756 241.515 9.91888 242.136 11.2484C243.68 14.5501 244.982 17.9667 245.736 21.5733C246.251 24.0393 247.113 26.4354 247.589 28.9074C248.052 31.3064 248.184 33.7665 248.521 36.1925C249.283 41.6863 249.273 47.2162 249.114 52.73C249.005 56.5265 248.511 60.315 247.857 64.0775C246.993 69.0496 245.85 73.9446 244.357 78.7637C242.744 83.9697 240.42 88.7998 236.97 93.0601C235.502 94.8724 234.238 96.8056 232.029 97.9562C231.084 98.448 231.392 99.8284 231.797 100.828C232.435 102.403 233.464 103.761 234.394 105.159C236.284 107.995 237.665 111.072 238.941 114.208C239.181 115.259 238.345 115.132 237.806 115.145C236.674 115.173 235.534 115.014 234.426 114.835C231.419 114.35 228.403 114.389 225.406 114.674C223.16 114.886 220.919 115.301 218.73 115.885C217.701 116.159 216.938 116.823 216.998 118.006C217.056 119.131 217.868 119.452 218.836 119.831C221.718 120.959 224.893 120.802 227.747 122.006C231.4 123.546 235.026 125.126 238.313 127.389C240.024 128.567 241.778 129.684 243.484 130.87C244.749 131.751 245.516 132.794 245.614 134.46C245.714 136.174 246.136 137.886 246.565 139.563C246.799 140.476 246.919 141.399 247.094 142.316C247.112 142.589 247.132 142.861 247.151 143.133C247.383 144.204 247.239 145.287 247.252 146.364C247.266 147.671 246.839 147.971 245.609 147.436C243.357 146.456 241.06 145.605 238.726 144.853C233.794 143.263 228.739 142.499 223.55 142.704C223.36 142.711 223.597 142.694 223.408 142.712C221.779 142.866 220.299 144.057 220.23 145.265C220.161 146.497 221.259 147.935 222.837 148.218C226.832 148.932 230.239 150.972 233.697 152.874C236.348 154.332 238.612 156.361 240.885 158.342C242.161 159.455 243.282 160.74 244.574 161.847C245.78 162.88 246.521 164.143 246.007 165.825C245.284 167.634 245.298 169.614 244.669 171.449C243.897 173.706 243.592 176.151 242.419 178.234C241.257 180.299 240.775 182.702 239.189 184.537C240.183 181.978 240.183 182.005 237.316 181.929C226.826 181.651 216.653 179.661 206.723 176.31C197.683 173.261 189.355 168.836 181.56 163.385C179.947 162.257 178.462 160.957 176.499 160.451C176.967 159.945 177.545 160.098 178.087 160.229C181.819 161.133 185.411 160.41 188.906 159.166C194.295 157.248 198.841 154.037 202.654 149.777C203.784 148.515 204.483 147.038 204.93 145.43C205.171 144.566 205.017 143.755 204.434 143.035C203.644 142.059 202.939 141.981 201.867 142.69C201.454 142.962 201.22 143.696 200.498 143.321C200.318 142.932 200.386 142.549 200.66 142.265C202.572 140.29 202.57 137.75 202.759 135.266C202.809 134.614 202.676 133.938 203.022 133.325C203.651 132.916 203.712 133.542 203.898 133.843C204.788 135.291 205.791 135.585 207.777 134.941C209.283 134.452 209.875 133.404 209.782 131.794C209.6 128.615 208.449 125.729 207.22 122.863C205.317 118.426 203.087 114.169 199.978 110.44C195.979 105.642 191.137 102.067 184.952 100.639C179.213 99.3156 173.665 99.8754 168.245 102.317C165.761 103.436 163.46 104.734 161.362 106.446C156.537 110.379 153.407 115.427 151.334 121.245C149.58 126.169 149.9 131.274 149.69 136.344C149.638 137.608 150.47 138.533 150.795 139.649C150.668 139.91 150.446 139.872 150.223 139.833C149.488 139.357 149.229 138.611 149.09 137.804C148.717 135.649 148.612 133.478 149.072 131.333C149.461 129.525 149.047 127.99 147.893 126.588C145.162 123.272 142.917 119.63 140.714 115.953C139.387 113.738 137.834 111.666 136.543 109.418C135.068 106.848 133.709 104.221 132.362 101.585C132.174 101.216 132.082 100.691 131.592 100.652C130.999 100.606 130.867 101.184 130.67 101.588C127.887 107.293 124.977 112.931 121.592 118.307C120.042 120.77 118.491 123.252 116.713 125.55C115.429 127.209 115.544 128.771 116.154 130.542C116.578 131.774 116.981 133.026 116.98 134.358C116.212 134.283 116.247 133.617 116.086 133.116C114.869 129.304 114.464 125.27 112.945 121.538C112.34 120.049 111.691 118.575 110.905 117.185C108.993 113.807 106.83 110.6 103.849 108.041C101.846 106.322 99.5167 105.161 97.0107 104.423C95.0744 103.853 93.1782 103.073 91.129 102.95C88.3031 102.78 85.4372 102.615 82.7583 103.671C78.6019 105.308 74.9544 107.604 71.8796 111.048C66.9935 116.52 64.6844 123.047 63.114 129.948C62.5533 132.412 62.2774 134.986 63.16 137.51C63.4699 138.394 63.9197 139.131 64.6904 139.654C65.2192 140.011 65.802 140.237 66.4197 139.907C67.0455 139.572 67.1554 138.981 67.1005 138.323C66.9835 136.935 67.6243 135.648 67.6642 134.275C67.6722 133.991 67.8312 133.583 68.317 133.836C68.7178 134.431 68.6928 135.118 68.5809 135.751C68.0251 138.872 68.0451 141.905 69.7334 144.732C69.6405 145.149 69.3016 145.316 68.9667 145.498C67.3843 146.355 66.9565 148.016 67.9191 149.6C68.288 150.205 68.7458 150.753 69.2226 151.268C73.265 155.632 77.9852 158.918 84.0268 159.628C86.6677 159.938 89.3727 159.462 92.0296 159.091C92.6214 159.008 93.2431 158.772 93.7539 159.323C92.2875 160.114 90.6552 160.075 89.0768 160.149C87.0856 160.243 85.4692 160.805 83.8519 162.131C78.5969 166.437 72.8632 169.982 66.6456 172.834C59.3215 176.193 51.6086 177.545 43.7057 178.25C42.0283 178.399 42.0014 178.366 42.4512 179.981C42.3502 180.102 42.2443 180.113 42.1333 179.995" fill="#bab5b8" fill-rule="nonzero" opacity="1" stroke="none"/>
<path d="M204.332 215.698C206.354 216.238 208.478 215.686 210.504 216.27C210.711 216.329 211.015 216.095 211.261 215.972C212.851 215.18 213.422 215.507 213.662 217.294C213.87 218.835 214.042 220.391 214.387 221.904C215.575 227.119 217.496 232.086 219.689 236.95C221.891 241.835 224.099 246.718 226.363 251.574C227.433 253.87 228.876 255.985 229.784 258.366C229.985 258.891 230.194 259.414 230.399 259.938C231.258 262.693 230.779 265.39 230.066 268.082C229.935 268.577 229.741 269.065 229.764 269.592C229.845 270.131 229.72 270.637 229.399 271.061C229.093 271.466 229.189 271.846 229.338 272.252C228.745 272.807 228.379 273.535 227.884 274.165C226.718 273.782 227.015 272.524 226.448 271.847C226.906 272.775 226.992 273.952 227.917 274.714C226.932 278.353 225.261 281.708 223.625 285.077C223.436 285.464 223.187 285.799 222.769 285.969L199.33 285.969C208.408 276.909 212.773 265.997 213.934 253.209C212.124 254.821 210.486 256.033 208.71 257.048C205.568 258.842 202.214 260 198.634 260.495C198.289 260.543 197.84 260.686 197.602 260.293C197.43 260.009 197.699 259.751 197.879 259.554C203.26 253.641 205.784 246.414 207.564 238.81C209.142 232.075 209.976 225.273 210.03 218.358C210.041 217.002 209.798 216.338 208.261 216.571C207.343 216.709 206.376 216.571 205.435 216.499C204.784 216.45 204.099 216.398 203.691 215.746C203.89 215.519 204.107 215.559 204.332 215.698" fill="#bab5b8" fill-rule="nonzero" opacity="1" stroke="none"/>
<path d="M56.6017 271.295C57.4314 268.158 58.418 265.054 59.0527 261.878C59.8584 257.841 62.0685 254.26 62.7483 250.239C63.1741 247.725 65.2563 245.752 64.8584 243.044C66.4268 241.461 66.1829 239.13 67.2645 237.287C68.2681 235.577 68.7259 233.526 69.2927 231.587C70.4122 227.754 71.5568 223.924 72.2825 219.991C72.4604 219.025 72.4454 218.02 72.4724 217.031C72.4914 216.317 72.5504 215.869 73.515 216.08C76.148 216.656 78.8059 217.116 81.4499 217.644C83.1632 217.986 84.8655 218.271 86.6328 218.052C87.7364 217.916 88.5851 217.483 89.1848 216.558C89.1199 218.005 88.0173 218.38 86.9167 218.522C84.8396 218.79 82.7504 218.609 80.7572 217.974C79.5117 217.577 78.2791 217.476 77.0036 217.49C76.6748 217.493 76.3459 217.433 76.016 217.414C75.4872 217.383 75.0804 216.47 74.5296 217.055C74.0178 217.598 74.1828 218.402 74.2387 219.102C74.5966 223.577 75.3363 228 76.2889 232.378C77.4015 237.494 78.676 242.586 80.8301 247.381C83.2932 252.862 86.0361 258.173 91.284 261.644C91.7838 261.975 92.5585 262.345 92.2756 263.174C92.0317 263.891 91.312 263.961 90.6483 264.105C86.8258 264.93 83.3551 263.529 79.9275 262.269C76.159 260.88 72.5924 259.038 69.9014 255.897C69.1357 255.004 68.413 254.073 67.6643 253.165C67.4934 252.958 67.3505 252.602 67.0216 252.726C66.5898 252.889 66.7817 253.299 66.8566 253.584C67.3465 255.45 67.8443 257.316 68.376 259.169C69.9504 264.653 71.7767 270.056 74.2547 275.198C75.993 278.807 78.4021 282.024 80.7102 285.289C80.8371 285.469 80.9711 285.644 81.212 285.97L57.4134 285.97C57.0675 285.705 56.8176 285.368 56.7066 284.946C55.5171 280.405 55.0473 275.857 56.6017 271.295" fill="#bab5b8" fill-rule="nonzero" opacity="1" stroke="none"/>
<path d="M203.214 133.215C203.234 135.101 203.233 136.982 202.754 138.829C202.404 140.178 202.346 141.651 200.924 142.475C200.633 142.644 200.58 143.021 200.631 143.37C200.925 144.827 200.101 145.901 199.294 146.908C195.639 151.468 190.824 154.37 185.397 156.297C182.781 157.227 180.015 157.286 177.269 157.103C171.77 156.738 166.612 155.144 161.734 152.619C160.262 151.856 158.876 150.958 157.684 149.791C156.746 148.707 155.982 147.41 154.409 147.095C153.384 146.335 153.842 145.057 153.392 144.054C152.939 143.04 152.182 142.142 152.002 140.937C151.917 140.365 150.679 140.468 150.222 139.832C150.399 139.816 150.575 139.798 150.75 139.781C152.318 139.503 153.008 138.437 153.344 136.989C153.945 134.415 154.448 131.818 155.17 129.273C157.569 120.837 161.993 113.882 169.828 109.489C175.982 106.038 181.988 106.9 187.825 110.348C190.151 111.723 192.171 113.521 194.241 115.236C195.303 116.117 195.982 117.349 196.722 118.492C199.354 122.555 201.245 126.984 203.018 131.466C203.233 132.009 203.592 132.585 203.214 133.215" fill="#f7d16c" fill-rule="nonzero" opacity="1" stroke="none"/>
<path d="M68.1869 133.79C67.7801 135.322 67.4922 136.879 67.5322 138.463C67.5522 139.297 67.3962 140.038 66.6435 140.367C65.8918 140.695 65.0841 140.558 64.3754 140.032C62.755 138.83 62.4562 137.039 62.3482 135.245C62.2073 132.888 62.5591 130.585 63.0929 128.254C63.6327 125.897 64.5243 123.685 65.2281 121.4C66.4196 117.531 68.6467 114.254 71.2617 111.198C72.889 109.298 74.5304 107.361 76.7215 106.176C79.9533 104.427 83.092 102.375 87.0735 102.491C89.0427 102.549 91.0249 102.349 92.9521 102.844C97.3044 103.961 101.557 105.194 104.916 108.542C108.064 111.68 110.445 115.252 112.313 119.248C113.753 122.33 114.779 125.495 115.334 128.859C115.643 130.732 116.416 132.527 116.981 134.357C117.128 135.654 117.256 136.954 117.43 138.247C117.593 139.446 117.278 140.506 116.614 141.488C116.124 141.725 115.562 141.416 115.077 141.69C114.837 141.705 114.596 141.721 114.355 141.736C113.996 141.755 113.688 141.597 113.373 141.458L113.311 141.381L113.212 141.398C111.792 141.073 111.001 140.138 110.868 138.734C110.423 134.017 108.36 129.757 107.019 125.303C106.273 122.827 104.949 120.487 103.348 118.341C102.51 117.219 101.79 116.006 100.816 114.98C97.6123 111.599 93.6149 109.885 89.0357 109.524C85.8409 109.273 83.217 110.874 80.644 112.469C76.7255 114.897 73.9066 118.356 71.9174 122.442C70.537 125.277 69.4864 128.27 68.8546 131.387C68.6907 132.2 68.8037 133.101 68.1869 133.79" fill="#070304" fill-rule="nonzero" opacity="1" stroke="none"/>
<path d="M68.1869 133.79C68.2629 129.738 69.8702 126.077 71.4536 122.502C72.95 119.125 75.1901 116.086 78.174 113.803C81.1828 111.501 84.3045 109.217 88.341 109.21C93.5719 109.201 98.0081 111.212 101.428 115.137C104.65 118.835 106.922 123.082 108.26 127.857C109.005 130.518 110.1 133.084 110.74 135.787C110.88 136.38 111.029 136.987 111.047 137.592C111.1 139.259 111.635 140.618 113.213 141.399C111.837 142.132 112.258 143.598 111.888 144.73C111.377 146.298 111.225 148.024 109.651 149.029C109.223 148.524 109.684 148.17 109.878 147.783C110.104 147.334 110.501 146.971 110.567 146.287C109.471 148.149 107.875 149.388 106.527 150.855C104.116 152.759 101.307 153.932 98.427 154.782C94.7184 155.879 90.865 156.613 86.9815 156.231C83.8867 155.927 80.9229 154.966 78.202 153.315C74.8773 151.297 72.3862 148.411 69.7983 145.614C69.6003 145.4 69.4994 145.136 69.5404 144.833C67.7011 142.275 67.4112 139.452 68.0829 136.452C68.2789 135.578 68.2549 134.682 68.1869 133.79" fill="#f7d16c" fill-rule="nonzero" opacity="1" stroke="none"/>
<path d="M157.77 149.418C164.63 154.686 172.431 157.023 181.021 156.658C185.736 156.457 189.771 154.331 193.56 151.674C195.962 149.989 198.078 148.022 199.673 145.548C200.097 144.891 200.316 144.1 200.631 143.37C201.904 141.845 202.895 141.427 203.945 141.97C205.262 142.652 205.835 144.328 205.186 146.071C204.597 147.654 203.789 149.092 202.62 150.402C199.335 154.081 195.397 156.839 190.945 158.801C186.717 160.664 182.287 161.719 177.616 160.49C177.265 160.397 176.872 160.46 176.499 160.451C171.603 159.64 166.995 158.075 162.886 155.219C161.255 154.086 159.867 152.671 158.416 151.329C157.558 151.013 157.356 150.074 156.72 149.543C156.516 149.373 156.225 149.117 156.422 148.849C156.689 148.487 156.995 148.746 157.245 148.966C157.417 149.119 157.618 149.241 157.77 149.418" fill="#080707" fill-rule="nonzero" opacity="1" stroke="none"/>
<path d="M69.5404 144.833C72.1264 147.215 74.1416 150.159 77.1404 152.154C81.9725 155.368 87.1624 156.447 92.8762 155.562C96.8326 154.949 100.599 153.852 104.125 151.963C104.935 151.528 105.679 150.968 106.454 150.466C107.137 150.184 107.521 149.553 108.055 149.097C108.333 148.86 108.613 148.454 109.008 148.8C109.418 149.16 109.037 149.471 108.808 149.757C108.69 149.906 108.586 150.062 108.49 150.225C104.66 155.01 99.7964 158.12 93.7538 159.323C91.4507 159.43 89.1566 159.716 86.8745 159.976C83.0031 160.419 79.5084 159.338 76.3167 157.496C73.1959 155.696 70.2781 153.513 68.054 150.534C67.1183 149.281 66.8664 147.992 67.0594 146.56C67.2493 145.146 68.6657 145.348 69.5404 144.833" fill="#090607" fill-rule="nonzero" opacity="1" stroke="none"/>
<path d="M222.77 285.969C224.458 282.536 226.212 279.133 227.292 275.436C227.377 275.147 227.634 274.907 227.812 274.645C227.677 274.487 227.673 274.325 227.801 274.16C228.022 273.296 228.136 272.352 229.274 272.164C229.849 272.305 229.859 272.307 229.697 273.035C229.64 273.286 229.376 273.595 229.919 273.574C230.543 273.55 230.054 273.222 230.044 273.044C230.013 272.495 230.411 272.099 230.537 271.589C229.61 271.848 229.268 271.602 229.651 270.65C229.741 270.427 230.224 270.106 229.599 269.909C228.936 269.128 229.583 268.407 229.763 267.707C230.421 265.147 230.612 262.563 230.4 259.938C231.845 263.192 233.421 266.392 234.373 269.843C233.886 270.441 233.139 270.113 232.514 270.358C233.701 271.643 233.247 273.194 233.125 274.625C233.056 275.445 232.147 275.373 231.5 275.218C230.992 275.096 230.531 274.76 230.125 274.929C231.236 275.309 232.506 275.566 233.907 275.367C232.914 274.714 233.297 273.734 233.236 272.864C233.203 272.396 233.2 271.923 233.239 271.456C233.319 270.494 233.792 270.222 234.652 270.716C234.872 271.474 234.911 272.336 235.8 272.709C235.88 272.814 235.869 272.908 235.768 272.991C235.393 273.355 235.443 273.784 235.707 274.141C236.553 275.283 236.698 276.646 237.036 277.962C237.64 280.311 238.353 282.629 239.282 284.878C239.42 285.213 239.419 285.608 239.484 285.976C233.911 285.973 228.34 285.971 222.77 285.969" fill="#8f8a8d" fill-rule="nonzero" opacity="1" stroke="none"/>
<path d="M131.735 160.725C129.298 160.696 126.695 158.3 126.477 155.884C126.338 154.355 128.039 153.005 129.484 153.51C129.971 153.68 130.47 153.856 130.907 154.123C131.764 154.644 132.548 154.623 133.42 154.123C133.893 153.851 134.486 153.7 135.035 153.67C135.945 153.622 136.862 153.789 137.362 154.684C137.972 155.774 137.918 157.019 137.157 157.887C135.753 159.488 134.095 160.842 131.735 160.725" fill="#eca2b7" fill-rule="nonzero" opacity="1" stroke="none"/>
<path d="M47.2338 187.932C45.1416 186.598 44.6168 184.251 43.5612 182.248C44.5868 184.256 46.3481 183.681 47.9155 183.37C55.0067 181.966 62.1699 181.385 69.386 181.333C69.6669 181.331 69.9508 181.354 70.2297 181.392C70.8585 181.476 71.5682 181.623 71.5382 182.395C71.5072 183.184 70.7245 183.083 70.2087 183.068C62.3878 182.851 54.7108 184.087 47.0349 185.333C46.592 185.405 46.0083 185.292 45.8853 185.914C45.7823 186.433 46.1972 186.633 46.608 186.811C47.0868 187.019 47.3477 187.378 47.2338 187.932" fill="#231916" fill-rule="nonzero" opacity="1" stroke="none"/>
<path d="M238.326 185.939C237.774 186.647 237.627 187.615 236.878 188.195C236.926 187.668 236.797 187.348 236.176 187.228C228.456 185.737 220.748 184.176 212.845 184.038C212.327 184.028 211.72 184.199 211.67 183.428C211.613 182.566 212.347 182.635 212.871 182.596C214.952 182.443 217.019 182.708 219.082 182.92C225.085 183.538 231.006 184.676 236.927 185.805C237.385 185.892 237.859 185.896 238.326 185.939" fill="#231916" fill-rule="nonzero" opacity="1" stroke="none"/>
<path d="M58.2528 199.042C57.1173 198.432 55.8948 198.08 55.233 196.679C54.8962 195.966 53.6886 195.667 52.88 195.172C52.5641 194.98 52.0993 194.834 51.9793 194.549C51.1516 192.587 49.1344 191.676 48.0229 189.965C47.603 189.32 47.2722 188.695 47.2362 187.926C48.5966 190.229 50.7758 191.837 52.3432 193.983C53.6926 195.831 54.9471 195.78 56.9883 194.698C62.1983 191.934 67.4742 189.291 73.1699 187.642C73.8207 187.454 74.9452 186.945 75.1652 187.712C75.4321 188.646 74.1746 188.423 73.5948 188.636C68.003 190.685 62.6091 193.163 57.3622 195.97C56.8754 196.231 56.3076 196.513 56.1527 197.055C56.0477 197.423 56.5755 197.461 56.8644 197.584C57.3952 197.887 57.762 198.395 58.2798 198.712L58.2818 198.713C58.3768 198.832 58.3668 198.942 58.2528 199.042" fill="#231916" fill-rule="nonzero" opacity="1" stroke="none"/>
<path d="M228.078 197.235C227.51 198.38 226.025 198.291 225.312 199.304C225.022 199.717 224.398 199.894 223.928 200.179C223.78 200.084 223.748 199.96 223.832 199.806C224.088 199.229 224.811 199.281 225.181 198.8C224.452 197.607 223.07 197.395 221.984 196.852C217.588 194.651 213.117 192.59 208.503 190.87C208.06 190.705 207.465 190.742 207.7 190.05C207.907 189.441 208.504 189.588 208.914 189.728C210.639 190.319 212.374 190.898 214.046 191.618C218.095 193.363 222.12 195.165 225.975 197.316C226.724 197.734 227.391 197.643 228.078 197.235" fill="#231916" fill-rule="nonzero" opacity="1" stroke="none"/>
<path d="M56.6017 271.295C56.5497 272.705 56.0909 274.047 55.9679 275.459C55.748 277.979 56.2248 280.391 56.7027 282.818C56.9106 283.874 57.1745 284.92 57.4134 285.97C56.1859 285.971 54.9593 285.971 53.7328 285.972C53.4889 283.512 54.5665 281.267 54.8934 278.897C55.1942 276.715 55.6351 274.552 56.0129 272.379C56.0869 271.95 56.2278 271.56 56.6017 271.295" fill="#525052" fill-rule="nonzero" opacity="1" stroke="none"/>
<path d="M223.832 199.806C223.863 199.931 223.895 200.055 223.928 200.18C219.36 203.206 214.575 205.824 209.478 207.845C208.75 208.134 207.93 208.189 207.151 208.352C207.073 208.406 206.992 208.487 206.906 208.487C204.787 208.484 203.136 209.329 202.023 211.162C201.947 211.252 201.873 211.343 201.801 211.434C201.586 211.733 201.548 212.078 201.552 212.433C201.51 213.146 201.907 213.617 202.374 214.093C202.735 214.461 203.331 214.722 203.195 215.412C201.947 214.745 200.651 214.075 200.649 212.406C200.647 211.204 203.351 208.222 204.558 208.088C206.284 207.895 207.921 207.328 209.609 207.003C211.598 206.621 213.146 205.409 214.851 204.489C215.139 204.333 215.378 204.007 215.674 203.955C218.561 203.452 220.678 201.529 223.034 200.044C223.26 199.902 223.563 199.883 223.832 199.806" fill="#b8b6b6" fill-rule="nonzero" opacity="1" stroke="none"/>
<path d="M58.2528 199.042C58.2618 198.933 58.2718 198.823 58.2818 198.713C59.0925 198.809 59.5773 199.453 60.1411 199.908C62.0813 201.472 64.3384 202.454 66.4886 203.648C67.6931 204.318 69.2735 204.45 70.0952 205.791C70.1791 205.929 70.413 206.067 70.565 206.055C72.7591 205.89 74.3175 207.254 76.0158 208.283C76.5296 208.595 77.1644 208.699 77.5782 209.186C75.8049 208.971 74.4135 207.864 72.8541 207.153C72.6971 207.081 72.5872 206.778 72.4632 206.783C69.4534 206.907 67.6611 204.294 65.0681 203.507C62.3512 202.683 60.2191 200.996 58.2528 199.042" fill="#231916" fill-rule="nonzero" opacity="1" stroke="none"/>
<path d="M108.49 150.225C108.344 149.721 109.011 149.487 108.937 148.933C107.814 149.036 107.566 150.468 106.454 150.466C107.91 148.845 109.645 147.475 110.791 145.251C111.424 147.084 109.92 147.847 109.65 149.03C109.311 149.474 109.119 150.06 108.49 150.225" fill="#7a7e5a" fill-rule="nonzero" opacity="1" stroke="none"/>
<path d="M157.77 149.418C157.294 149.487 157.127 148.916 156.455 148.879C157.173 149.777 157.794 150.554 158.416 151.329C157.416 151.274 157.134 150.338 156.583 149.769C155.789 148.945 155.127 147.993 154.409 147.095C154.813 146.644 155.258 146.72 155.614 147.103C156.332 147.875 157.281 148.434 157.77 149.418" fill="#a0a383" fill-rule="nonzero" opacity="1" stroke="none"/>
<path d="M201.771 211.2C201.848 211.144 201.932 211.132 202.023 211.163C201.435 213.365 203.237 214.351 204.332 215.698C204.118 215.714 203.905 215.73 203.691 215.746C203.525 215.635 203.36 215.523 203.195 215.412C202.682 214.884 202.187 214.337 201.649 213.836C201.188 213.404 201.118 212.887 201.181 212.312C201.417 211.962 201.43 211.494 201.771 211.2" fill="#646362" fill-rule="nonzero" opacity="1" stroke="none"/>
<path d="M42.1333 179.995C42.2393 179.991 42.3442 179.986 42.4502 179.981C43.2539 180.526 43.5318 181.327 43.5617 182.25C42.814 181.67 42.6351 180.73 42.1333 179.995" fill="#7c797a" fill-rule="nonzero" opacity="1" stroke="none"/>
<path d="M58.2802 198.713C57.5435 198.67 57.2536 198.066 56.8648 197.585C57.6205 197.605 57.9084 198.211 58.2802 198.713" fill="#aca9a8" fill-rule="nonzero" opacity="1" stroke="none"/>
<path d="M239.198 184.544C239.023 185.084 238.923 185.669 238.324 185.944C238.477 185.391 238.65 184.851 239.198 184.544" fill="#747372" fill-rule="nonzero" opacity="1" stroke="none"/>
<path d="M229.762 195.803C229.593 196.35 229.293 196.732 228.652 196.682C228.906 196.242 229.283 195.96 229.762 195.803" fill="#777776" fill-rule="nonzero" opacity="1" stroke="none"/>
<path d="M115.077 141.691C115.552 141.332 116.088 141.439 116.616 141.488C116.145 141.884 115.604 141.733 115.077 141.691" fill="#e3e9b8" fill-rule="nonzero" opacity="1" stroke="none"/>
<path d="M89.429 215.668C89.426 215.138 89.424 214.607 89.421 214.076C89.8749 214.605 90.0268 215.134 89.429 215.668" fill="#817d80" fill-rule="nonzero" opacity="1" stroke="none"/>
<path d="M113.373 141.459C113.737 141.422 114.06 141.531 114.356 141.737C113.877 142.173 113.649 141.733 113.373 141.459" fill="#e3e9b8" fill-rule="nonzero" opacity="1" stroke="none"/>
<path d="M232.379 193.311C232.246 193.777 231.891 193.985 231.459 194.106C231.602 193.652 231.879 193.353 232.379 193.311" fill="#777776" fill-rule="nonzero" opacity="1" stroke="none"/>
<path d="M171.701 54.6906C170.415 54.5247 170.029 54.9975 169.905 56.371C169.54 60.3824 168.792 64.3608 167.324 68.1253C166.146 71.1442 165.013 74.2699 163.248 76.9459C161.267 79.9497 159.293 83.0385 156.694 85.6025C156.061 86.2272 155.239 86.633 154.407 86.9849C152.546 87.7706 150.525 86.3072 150.757 84.276C151.06 81.616 151.531 78.9721 151.742 76.3071C151.927 73.971 151.875 71.614 151.884 69.2659C151.889 68.0074 151.98 66.7559 151.923 65.4854C151.791 62.5655 151.413 59.7027 150.698 56.8758C150.626 56.5879 150.557 56.293 150.246 56.227C149.826 56.1381 149.671 56.4779 149.554 56.7888C148.468 59.6297 147.186 62.3726 145.73 65.0466C142.94 70.1715 140.298 75.3845 136.928 80.1636C135.105 82.7476 132.836 82.4647 131.284 79.6138C129.162 75.7174 127.54 71.602 126.304 67.3646C125.201 63.5821 124.211 59.7437 124.078 55.7582C124.071 55.5343 124.121 55.2434 123.847 55.1485C123.487 55.0235 123.361 55.3384 123.227 55.5753C122.282 57.2426 121.577 59.0159 120.941 60.8162C120.504 62.0517 119.81 63.1733 119.506 64.4748C118.789 67.5366 117.498 70.4474 117.146 73.6092C116.842 76.3441 116.478 79.072 116.152 81.8049C116.041 82.7346 116.079 83.7202 115.367 84.4469C114.379 85.4535 112.847 85.3106 111.462 84.138C109.929 82.8415 109.233 80.9943 108.453 79.262C105.849 73.4852 104.56 67.4166 104.431 61.0541C104.39 59.0319 104.268 57.0227 104.484 55.0075C104.591 54.0119 104.196 53.68 103.156 53.5111C100.634 53.1043 98.2328 52.3006 96.5484 50.1664C98.2907 51.0531 99.8191 52.3296 101.793 52.7944C104.975 53.5421 108.077 53.3472 111.265 52.6634C113.545 52.1726 115.775 51.5079 118.052 51.0271C120.981 50.4083 123.883 49.5997 126.889 49.4597C131.532 49.2438 136.169 48.631 140.828 49.2408C142.834 49.5037 144.856 49.2218 146.886 49.5147C151.391 50.1644 155.862 50.9601 160.292 51.9837C163.34 52.6894 166.376 53.4511 169.394 54.2698C170.162 54.4787 171.022 54.0919 171.701 54.6906" fill="#8f8a8d" fill-rule="nonzero" opacity="1" stroke="none"/>
<path d="M246.007 165.825C246.275 164.171 245.327 163.053 244.251 162.047C241.264 159.251 238.297 156.426 234.937 154.066C232.929 152.657 230.596 151.826 228.511 150.564C226.412 149.292 223.99 149.096 221.768 148.249C220.318 147.698 219.881 146.431 219.73 145.172C219.596 144.059 221.423 142.47 222.853 142.365C224.588 142.237 226.352 142.187 228.084 142.335C232.935 142.751 237.652 143.819 242.183 145.631C243.356 146.1 244.524 146.583 245.674 147.105C246.834 147.631 247.147 147.436 247.147 146.102C247.148 145.113 247.15 144.123 247.152 143.133C247.666 144.452 247.384 145.83 247.422 147.179C247.563 152.181 246.64 157.106 246.28 162.073C246.19 163.323 246.596 164.613 246.007 165.825" fill="#8f8a8d" fill-rule="nonzero" opacity="1" stroke="none"/>
<path d="M247.094 142.316C246.334 139.599 245.669 136.858 245.434 134.044C245.344 132.962 244.777 132.265 243.998 131.734C239.847 128.906 235.748 126.029 231.149 123.881C228.082 122.449 224.969 121.51 221.662 121.06C220.359 120.883 219.211 120.211 217.881 120.013C216.932 119.871 216.353 118.791 216.504 117.66C216.677 116.368 217.579 115.638 218.733 115.395C222.085 114.694 225.47 114.027 228.896 114.011C231.506 113.999 234.116 114.473 236.731 114.649C237.468 114.699 238.408 115.336 238.941 114.208C240.008 115.613 240.389 117.34 241.038 118.923C242.444 122.345 243.452 125.91 244.474 129.475C245.517 133.113 246.094 136.84 247.018 140.495C247.163 141.071 247.074 141.707 247.094 142.316" fill="#8f8a8d" fill-rule="nonzero" opacity="1" stroke="none"/>
<path d="M41.2069 137.468C41.0449 138.677 40.87 139.885 40.728 141.096C40.6511 141.741 40.828 141.975 41.6077 141.878C44.9564 141.46 48.3121 141.049 51.7037 141.397C52.9912 141.528 55.0254 142.763 55.1843 143.594C55.6871 146.209 54.9984 147.112 52.9502 148.081C52.1315 148.468 51.4128 148.993 50.6581 149.472C47.4354 151.514 44.4366 153.859 41.4777 156.253C40.5711 156.986 40.1153 158.182 39.0307 158.758C38.9088 154.249 39.2296 149.789 40.0363 145.334C40.4232 143.198 40.3212 140.964 40.6881 138.796C40.764 138.345 40.5771 137.845 40.956 137.455C41.0459 137.318 41.1299 137.322 41.2069 137.468" fill="#8f8a8d" fill-rule="nonzero" opacity="1" stroke="none"/>
<path d="M46.3942 117.917C45.9704 119.304 45.5525 120.694 45.1207 122.078C44.8318 123.002 44.9028 123.506 46.1123 123.643C48.1595 123.876 50.1717 124.393 52.2089 124.727C53.5354 124.944 54.2461 125.884 54.7939 126.909C55.4136 128.071 54.579 129.541 53.1046 130.167C52.2729 130.52 51.3882 130.621 50.5046 130.763C47.0659 131.309 44.1951 133.011 41.5841 135.224C42.6257 132.105 42.6567 128.739 44.0611 125.69C44.8398 124 44.5349 121.987 45.2267 120.228C45.5425 119.422 45.5815 118.472 46.3942 117.917" fill="#8f8a8d" fill-rule="nonzero" opacity="1" stroke="none"/>
<path d="M235.768 272.991L235.8 272.71C236.219 272.668 236.637 272.617 237.057 272.589C237.555 272.554 238.108 272.714 238.121 271.864C238.134 271.09 237.723 271.035 237.143 271.056C236.874 271.066 236.574 271.135 236.307 270.83C236.707 269.93 238.806 271.265 238.285 268.971C238.736 270.929 239.946 270.445 240.967 270.395C241.138 269.972 240.324 269.929 240.609 269.476C240.782 269.201 241.014 269.328 241.21 269.464C241.625 269.751 242.145 269.929 242.325 270.464C242.344 270.522 242.201 270.678 242.102 270.727C241.046 271.256 241.091 271.798 241.979 272.664C242.683 273.35 242.245 274.328 241.867 274.987C241.394 275.808 240.571 275.636 239.816 275.113C240.239 274.45 241.532 275.289 241.492 273.995C241.476 273.508 241.491 273.253 240.874 273.191C238.937 272.997 238.805 273.081 238.742 274.993C238.729 275.354 238.854 275.754 238.507 276.108C237.8 275.71 238.09 275.012 238.135 274.501C238.231 273.429 237.867 273.043 236.804 273.205C236.47 273.256 236.043 273.388 235.768 272.991" fill="#231916" fill-rule="nonzero" opacity="1" stroke="none"/>
<path d="M234.652 270.716C233.794 270.463 233.423 270.744 233.513 271.67C233.573 272.278 233.532 272.897 233.52 273.511C233.505 274.354 233.305 275.312 234.716 275.086C234.965 275.046 235.161 275.239 235.126 275.528C235.084 275.86 234.783 275.844 234.583 275.809C233.354 275.594 231.995 276.383 230.859 275.279C230.685 275.11 230.142 275.273 229.784 275.351C229.346 275.444 228.922 275.662 228.122 275.167C229.371 274.857 230.137 274.096 231.257 274.916C232.056 275.5 232.798 275.039 232.824 274.06C232.842 273.304 232.813 272.548 232.822 271.792C232.83 271.143 232.839 270.523 231.893 270.628C231.638 270.657 231.401 270.509 231.426 270.234C231.452 269.956 231.72 269.903 231.967 269.897C232.769 269.878 233.571 269.862 234.374 269.844C235.008 269.961 235.203 270.221 234.652 270.716" fill="#8f8a8d" fill-rule="nonzero" opacity="1" stroke="none"/>
<path d="M202.023 211.162C202.892 208.693 204.929 208.352 207.152 208.352C206.94 208.924 206.44 208.888 205.974 208.897C204.708 208.921 203.538 209.072 203.021 210.514C202.884 210.894 202.522 211.201 202.023 211.162" fill="#646362" fill-rule="nonzero" opacity="1" stroke="none"/>
<path d="M41.2069 137.468C41.1229 137.468 41.0399 137.463 40.956 137.455C41.0609 136.68 41.0769 135.88 41.5857 135.218C41.5257 135.979 41.7077 136.781 41.2069 137.468" fill="#424041" fill-rule="nonzero" opacity="1" stroke="none"/>
<path d="M228.115 13.2686C229.57 12.5538 230.734 11.3863 232.342 10.8635C236.15 9.628 239.146 10.7116 241.131 14.0623C243.058 17.318 243.834 21.0315 244.184 24.726C244.762 30.8176 245.51 36.9412 245.049 43.0588C244.725 47.3511 244.445 51.6704 243.594 55.9237C243.125 58.2688 242.812 60.6539 242.461 63.0239C242.151 65.1111 241.276 66.9764 240.578 68.9066C239.272 72.5182 238.387 76.3067 236.142 79.5414C233.406 83.4839 230.999 87.6682 227.418 90.9699C226.21 92.0835 225.755 92.0885 224.73 90.757C221.718 86.8385 218.702 82.9311 215.088 79.5174C208.792 73.5668 201.868 68.5228 194.14 64.5803C192.649 63.8196 191.081 63.1459 189.74 62.0453C190.089 61.6085 190.713 61.9923 190.992 61.5325C191.175 61.0967 191.578 60.9148 191.964 60.7618C198.662 58.1149 203.211 52.9879 207.312 47.3841C209.327 44.6302 210.574 41.4445 211.967 38.3497C214.232 33.3197 216.438 28.2437 219.437 23.6035C221.606 20.2498 223.765 16.8442 226.714 14.0673C227.105 13.6964 227.437 13.1616 228.115 13.2686" fill="#eabbcc" fill-rule="nonzero" opacity="1" stroke="none"/>
<path d="M92.8613 57.2619C93.686 57.6328 93.3641 57.9976 92.8113 58.2475C90.4093 59.3321 88.0802 60.5516 85.8151 61.8941C82.9902 63.5684 80.1793 65.2968 77.7313 67.4789C73.299 71.4293 69.0567 75.5877 65.4211 80.3068C64.1026 82.0162 62.9241 83.8334 61.6966 85.6117C60.614 87.1801 59.9163 87.2291 58.3509 86.0666C55.9358 84.2723 54.4264 81.7663 52.903 79.2872C50.596 75.5317 49.5084 71.3004 48.2909 67.112C46.9964 62.6598 46.4026 58.0906 45.9178 53.5234C45.32 47.8926 45.374 42.2299 45.7099 36.5641C46.0288 31.1932 46.6545 25.8673 47.8021 20.6214C48.5558 17.1777 49.6323 13.8081 51.4906 10.7553C52.893 8.45118 54.3405 7.95337 56.7825 9.06394C58.187 9.70168 59.5754 10.4074 60.575 11.6619C60.7779 11.9168 61.0138 12.1697 61.3957 12.1417C62.2014 12.3376 62.6182 12.9964 63.065 13.5911C65.686 17.0718 67.7172 20.8993 69.6404 24.7947C72.3944 30.3735 74.3496 36.3052 77.3044 41.802C80.1993 47.1919 84.1537 51.5772 89.0978 55.1188C89.7155 55.5606 90.4142 55.8465 91.108 56.1494C91.7447 56.4263 92.4674 56.5932 92.8613 57.2619" fill="#ecbacd" fill-rule="nonzero" opacity="1" stroke="none"/>
<path d="M203.214 133.215C201.058 127.275 198.651 121.439 194.724 116.42C193.047 114.275 190.701 112.763 188.468 111.199C185.386 109.041 181.915 107.867 178.203 107.662C174.773 107.474 171.636 108.691 168.761 110.505C165.315 112.681 162.458 115.509 160.242 118.914C158.895 120.983 157.808 123.203 156.843 125.511C155.176 129.5 154.717 133.772 153.51 137.859C152.969 139.696 152.254 140.174 150.75 139.781C149.605 138.882 149.339 137.625 149.337 136.269C149.33 132.503 149.147 128.683 149.902 125.005C151.263 118.37 154.334 112.463 159.204 107.743C161.627 105.394 164.498 103.535 167.724 102.103C171.622 100.373 175.587 99.4207 179.724 99.5656C186.322 99.7975 192.103 102.174 197.012 106.78C202.383 111.82 205.765 118.017 208.414 124.744C209.302 127.002 209.955 129.285 210.17 131.703C210.287 133.008 210.153 134.24 208.89 134.891C207.437 135.637 205.869 136.013 204.271 135.276C203.411 134.879 203.765 133.803 203.214 133.215" fill="#070304" fill-rule="nonzero" opacity="1" stroke="none"/>
<path d="M228.115 13.2686C225.136 15.9785 222.825 19.2162 220.613 22.5569C217.26 27.6219 214.766 33.1117 212.295 38.6276C210.728 42.1242 209.22 45.6708 206.811 48.7126C203.211 53.2598 199.473 57.6671 194.078 60.23C193.071 60.7089 192.023 61.1007 190.993 61.5325C190.569 61.5295 190.147 61.5145 189.725 61.5265C188.78 61.5555 187.794 61.7085 187.463 60.44C187.065 58.9176 187.443 57.807 188.681 57.1882C189.556 56.7504 190.467 56.3776 191.379 56.0167C194.265 54.8732 196.707 53.1428 198.631 50.6828C199.495 49.5772 200.631 48.7386 201.483 47.579C203.831 44.3843 205.798 40.9746 207.694 37.508C211.784 30.027 216.077 22.6749 222.471 16.8512C223.99 15.4697 225.724 14.3261 227.358 13.0726C227.696 12.8137 228.021 12.5938 228.115 13.2686" fill="#080405" fill-rule="nonzero" opacity="1" stroke="none"/>
<path d="M92.8613 57.2619C86.5608 54.9278 82.2825 50.2597 78.7209 44.8378C75.3592 39.7178 73.371 33.9351 70.9119 28.3703C68.3729 22.6266 65.602 16.9438 61.3957 12.1417C61.4537 11.7719 60.709 11.6819 61.0009 11.361C61.3977 10.9252 61.6526 11.492 61.8765 11.7109C65.4231 15.1795 68.3819 19.102 70.9879 23.3213C74.0147 28.2194 76.6597 33.3344 79.6185 38.2684C81.6017 41.5751 84.1277 44.453 86.8207 47.2179C89.5976 50.0698 92.5694 52.6068 96.093 54.483C96.7328 54.8239 97.2595 55.4396 97.0856 56.2013C96.8837 57.086 96.118 57.4688 95.2463 57.4189C94.4517 57.3729 93.668 57.157 92.8613 57.2619" fill="#0b060a" fill-rule="nonzero" opacity="1" stroke="none"/>
<path d="M168.744 97.1725C166.809 97.2505 165.005 97.1545 163.609 95.9959C160.644 93.5349 161.053 91.3418 163.047 88.3879C164.088 86.8466 165.462 85.5351 166.171 83.7568C166.416 83.142 166.976 82.7882 167.737 82.7382C170.301 82.5662 173.028 83.9797 174.146 86.3018C175.069 88.218 176.487 89.9403 176.261 92.3244C176.042 94.6155 174.713 96.2029 172.469 96.7047C171.176 96.9936 169.917 97.3524 168.744 97.1725" fill="#8f8a8d" fill-rule="nonzero" opacity="1" stroke="none"/>
<path d="M103.998 98.6265C101.957 98.5135 100.021 97.8518 98.1808 97.0881C96.4195 96.3564 95.3399 93.1157 96.1516 91.3974C97.0252 89.5461 97.8059 87.6338 99.4463 86.2084C101.263 84.63 103.138 84.3971 104.595 86.2324C106.362 88.4555 108.233 90.6756 109.051 93.5125C109.579 95.3508 108.138 97.9078 106.238 98.3156C105.51 98.4716 104.777 98.7345 103.998 98.6265" fill="#8f8a8d" fill-rule="nonzero" opacity="1" stroke="none"/>
<path d="M224.913 272.487C224.913 273.289 224.944 274.09 224.904 274.89C224.866 275.653 224.493 276.132 223.648 276.067C223.336 276.043 222.908 276.164 222.841 275.714C222.755 275.144 223.237 275.336 223.52 275.312C224.225 275.252 224.145 274.734 224.147 274.268C224.154 272.996 224.133 271.722 224.166 270.451C224.176 270.076 223.926 269.408 224.495 269.397C225.201 269.384 224.893 270.102 224.926 270.509C224.978 271.165 224.939 271.827 224.939 272.487L224.913 272.487Z" fill="#bab5b8" fill-rule="nonzero" opacity="1" stroke="none"/>
<path d="M229.599 269.909C229.831 269.669 229.918 269.081 230.41 269.403C230.802 269.663 230.393 269.97 230.281 270.248C230.132 270.617 229.728 270.881 229.803 271.345C230.458 271.61 230.572 270.748 231.098 270.714C231.479 271.406 230.796 271.742 230.689 272.235C230.628 272.51 229.518 273.153 230.91 273.136C231.183 273.133 231.207 273.597 231.001 273.662C230.339 273.869 229.61 274.16 228.969 274.05C228.415 273.955 228.918 273.528 229.079 273.23C229.252 272.915 230.056 272.664 229.275 272.164C228.796 272.092 228.185 272.096 228.802 271.372C229.17 270.94 229.475 270.473 229.599 269.909" fill="#8f8a8d" fill-rule="nonzero" opacity="1" stroke="none"/>
<path d="M221.165 274.564C221.509 273.471 221.848 272.377 222.197 271.286C222.267 271.066 222.352 270.825 222.66 270.878C222.878 270.915 222.993 271.111 222.948 271.288C222.639 272.507 222.346 273.742 221.581 274.753C221.442 274.691 221.304 274.627 221.165 274.564" fill="#bab5b8" fill-rule="nonzero" opacity="1" stroke="none"/>
<path d="M227.801 274.159C227.804 274.321 227.808 274.483 227.812 274.644C227.385 274.747 227.121 274.63 226.965 274.173C226.664 273.292 226.304 272.431 225.969 271.561C225.869 271.299 225.717 270.942 226.004 270.804C226.422 270.602 226.543 271.038 226.66 271.319C227.054 272.261 227.423 273.213 227.801 274.159" fill="#bab5b8" fill-rule="nonzero" opacity="1" stroke="none"/>
<path d="M195.224 135.668C195.873 138.735 194.437 141.877 193.329 145.016C192.856 146.359 191.406 147.324 190.692 148.622C188.889 151.904 185.621 153.248 182.61 154.865C181.411 155.508 179.821 155.067 178.411 155.056C172.632 155.013 167.829 152.718 164.468 148.092C162.783 145.769 161.224 143.254 161.046 140.014C160.95 138.279 161.121 136.287 160.168 134.585C159.752 133.843 160.765 133.342 160.625 132.61C160.277 130.795 160.866 129.023 161.323 127.377C162.018 124.869 162.907 122.36 164.571 120.211C166.009 118.354 167.436 116.503 169.229 114.976C171.336 113.182 173.779 112.228 176.55 111.929C181.976 111.344 186.096 113.786 189.269 117.749C191.216 120.182 192.663 123.02 193.681 126.105C194.674 129.117 195.37 132.076 195.224 135.668" fill="#f5af32" fill-rule="nonzero" opacity="1" stroke="none"/>
<path d="M105.646 136.063C105.665 138.617 105.742 140.761 105.074 142.853C104.764 143.823 104.03 144.499 103.534 145.336C103.252 145.809 102.88 146.223 102.657 146.755C101.252 150.1 98.3566 152.126 95.2408 153.063C92.7408 153.814 89.9449 154.193 86.9971 153.566C83.7744 152.882 81.0134 151.65 78.7034 149.579C76.1684 147.307 74.2011 144.541 73.2645 141.1C72.5098 138.328 71.943 135.559 72.2239 132.712C72.5398 129.507 72.8907 126.326 74.1981 123.264C75.2887 120.708 76.2943 118.185 78.4445 116.342C80.3277 114.728 82.4189 113.565 84.9139 112.995C86.3124 112.677 87.6658 112.597 89.0613 112.517C91.6243 112.369 93.6755 113.464 95.8176 114.744C98.9754 116.631 100.406 119.754 102.386 122.55C104.147 125.039 104.112 127.983 105.125 130.629C105.87 132.573 105.484 134.528 105.646 136.063" fill="#f5af32" fill-rule="nonzero" opacity="1" stroke="none"/>
<path d="M201.771 211.2C201.677 211.626 201.512 212.012 201.181 212.312C201.128 211.809 201.23 211.388 201.771 211.2" fill="#7e7e7e" fill-rule="nonzero" opacity="1" stroke="none"/>
<path d="M239.573 272.616C238.955 272.702 238.683 272.436 238.695 271.75C238.71 270.93 239.261 271.077 239.763 271.029C240.42 270.968 240.678 271.179 240.663 271.88C240.645 272.692 240.135 272.621 239.573 272.616" fill="#231916" fill-rule="nonzero" opacity="1" stroke="none"/>
<path d="M210.707 49.3641C212.15 47.235 213.661 45.1458 215.025 42.9667C217.834 38.4834 221.113 34.378 224.731 30.5346C226.435 28.7253 228.122 26.891 230.121 25.3916C231.949 24.0211 234.454 23.9881 235.709 25.2906C236.759 26.3792 236.578 27.4458 235.137 27.6277C229.453 28.3474 226.317 32.5877 222.711 36.2673C218.845 40.2117 215.815 44.8749 211.837 48.7144C211.54 49.0023 211.224 49.2732 210.916 49.5511C210.847 49.4891 210.776 49.4261 210.707 49.3641" fill="#8d7d84" fill-rule="nonzero" opacity="1" stroke="none"/>
<path d="M209.612 53.7325C211.549 51.6483 213.777 49.973 216.006 48.3027C219.392 45.7657 222.959 43.5395 227.057 42.358C229.225 41.7333 231.44 41.2934 233.7 42.1511C234.396 42.415 234.798 42.8078 235.019 43.4786C235.402 44.6431 235.123 45.1129 233.899 45.0589C231.675 44.959 229.458 45.039 227.288 45.4878C223.243 46.3254 219.676 48.3137 216.178 50.4028C214.068 51.6643 211.684 52.3601 209.612 53.7325" fill="#897d83" fill-rule="nonzero" opacity="1" stroke="none"/>
<path d="M204.191 59.1328C205.259 58.0872 206.436 57.7903 207.454 57.3285C211.607 55.4422 215.978 54.3756 220.574 54.4556C224.122 54.5166 227.215 55.6341 229.532 58.478C230.212 59.3137 230.368 60.7801 229.769 61.3129C228.863 62.1186 227.291 61.8817 226.509 60.8161C223.878 57.2315 220.179 56.4888 216.029 56.7717C212.077 57.0396 208.335 58.3281 204.191 59.1328" fill="#8b7c81" fill-rule="nonzero" opacity="1" stroke="none"/>
<path d="M204.8 62.9184C208.381 62.5115 211.879 62.6485 215.284 63.982C218.659 65.3034 221.132 67.6875 223.301 70.4564C224.009 71.3611 223.579 72.9894 222.556 73.6871C221.71 74.2649 220.123 74.011 219.519 73.1364C219.065 72.4806 218.686 71.7709 218.323 71.0602C216.409 67.3057 213.337 65.0515 209.302 64.008C207.811 63.6231 206.373 63.0093 204.8 62.9184" fill="#868082" fill-rule="nonzero" opacity="1" stroke="none"/>
<path d="M78.2273 48.302C76.3441 46.8826 74.8247 45.1163 73.3283 43.336C70.8163 40.3482 68.96 36.8566 66.2381 34.0287C63.6981 31.3897 61.384 28.4959 58.1213 26.6476C57.3176 26.1938 56.409 26.1998 55.5483 25.9908C54.6137 25.7629 53.3082 25.7959 53.5091 24.2215C53.631 23.2639 55.1994 22.2903 56.336 22.3953C58.5961 22.6062 60.4384 23.6928 62.0827 25.1572C66.7509 29.3145 70.0166 34.5195 73.0204 39.9124C74.6188 42.7822 76.2161 45.6511 78.2273 48.302" fill="#877b7e" fill-rule="nonzero" opacity="1" stroke="none"/>
<path d="M77.5118 51.4947C76.4213 50.831 75.3137 50.1952 74.2431 49.4995C71.6472 47.8122 69.0902 46.0668 66.2063 44.8763C63.5274 43.7707 60.8144 42.9151 57.8556 43.3619C57.1179 43.4729 56.4282 43.234 56.3892 42.4353C56.3542 41.7425 56.902 41.1918 57.6087 41.0818C60.9224 40.568 64.0841 40.9908 66.933 42.8731C69.6739 44.6854 72.5748 46.2628 75.0578 48.4599C76.0264 49.3176 76.9591 50.1782 77.7368 51.1928C77.6618 51.2938 77.5868 51.3937 77.5118 51.4947" fill="#8c7a84" fill-rule="nonzero" opacity="1" stroke="none"/>
<path d="M78.9562 55.9968C77.3068 56.0138 75.9334 55.3431 74.468 55.1542C70.0187 54.5774 65.6334 54.4744 61.3361 56.0078C61.1142 56.0868 60.8843 56.1428 60.6584 56.2087C59.8577 56.4447 59.059 56.3357 58.6882 55.587C58.2923 54.7893 58.9861 54.2225 59.5738 53.8677C60.5784 53.2609 61.652 52.6601 62.8166 52.5162C68.4043 51.8225 73.7103 52.7221 78.6323 55.55C78.7323 55.608 78.7833 55.7519 78.9562 55.9968" fill="#8b7c83" fill-rule="nonzero" opacity="1" stroke="none"/>
<path d="M78.0121 61.2355C75.2532 62.278 72.3883 62.9428 70.1242 64.932C68.9107 65.9986 67.8102 67.1381 66.9475 68.5116C66.5996 69.0634 66.1638 69.5662 65.723 70.05C65.4351 70.3649 65.0682 70.6477 64.6184 70.2769C64.2825 70.001 64.0476 69.7181 64.1586 69.1943C64.3385 68.3447 64.6294 67.561 65.1712 66.8912C68.292 63.0347 72.4223 61.2175 77.2974 60.9246C77.5183 60.9116 77.7702 60.8806 78.0121 61.2355" fill="#927a84" fill-rule="nonzero" opacity="1" stroke="none"/>
<path d="M190.332 135.222C190.542 138.528 189.688 141.485 188.229 143.998C186.793 146.472 184.446 148.403 181.591 149.421C178.679 150.457 175.974 149.873 173.31 148.464C168.855 146.106 166.801 142.282 165.95 137.463C165.159 132.988 165.446 128.695 167.447 124.641C169.289 120.91 171.61 117.595 176.137 116.654C179.436 115.968 182.082 117.098 184.355 119.315C186.768 121.669 188.15 124.608 189.104 127.834C189.843 130.344 190.397 132.839 190.332 135.222" fill="#070303" fill-rule="nonzero" opacity="1" stroke="none"/>
<path d="M89.042 116.973C92.2027 116.533 94.6698 118.373 96.503 120.945C100.731 126.876 101.972 133.484 99.9997 140.529C98.8991 144.463 96.3841 147.415 92.4217 148.651C89.087 149.693 85.7263 149.209 82.8584 147.118C77.0767 142.903 75.9102 136.952 76.8128 130.28C77.2157 127.296 78.0613 124.406 79.6197 121.894C81.6399 118.639 84.7407 116.879 89.042 116.973" fill="#060303" fill-rule="nonzero" opacity="1" stroke="none"/>
<path d="M179.031 124.389C179.005 126.302 177.47 128.045 175.845 128.005C173.253 127.942 171.774 126.688 171.767 124.547C171.759 122.077 173.172 120.758 175.807 120.777C177.878 120.792 179.063 122.12 179.031 124.389" fill="#f3f7f6" fill-rule="nonzero" opacity="1" stroke="none"/>
<path d="M87.0555 128.413C84.6304 128.36 82.9241 126.812 82.9601 124.697C82.9971 122.489 84.6014 120.72 86.5347 120.754C89.0487 120.798 90.6301 122.328 90.5691 124.654C90.5111 126.851 89.0117 128.455 87.0555 128.413" fill="#edf5ef" fill-rule="nonzero" opacity="1" stroke="none"/>
<path d="M243.889 263.972C243.889 263.972 249.043 274.276 250.203 284.315L244.331 283.727L239.963 269.38L243.889 263.972Z" fill="#070405" fill-rule="nonzero" opacity="1" stroke="none"/>
<path d="M234.119 268.972C234.119 268.972 235.008 273.786 236.595 276.108C238.18 278.429 239.06 268.972 239.06 268.972L234.119 268.972Z" fill="#070405" fill-rule="nonzero" opacity="1" stroke="none"/>
<path d="M230.18 265.72C230.18 265.72 228.297 272.705 224.404 282.636C220.511 292.564 230.18 275.26 230.18 275.26L230.18 265.72Z" fill="#8f8a8d" fill-rule="nonzero" opacity="1" stroke="none"/>
<path d="M117.144 168.878C123.327 175.061 128.709 169.223 130.796 166.322C131.267 165.668 132.234 165.656 132.735 166.288C135.091 169.256 141.156 175.483 146.74 169.319" fill="none" opacity="1" stroke="#eca2b7" stroke-linecap="round" stroke-linejoin="miter" stroke-width="3"/>
</g>
</g>
</svg>
